<?xml version="1.0" encoding="UTF-8" standalone="no"?>
<!-- This is a Stata 15.1 generated SVG file (http://www.stata.com) -->

<svg version="1.1" width="5.50in" height="4.00in" viewBox="0 0 3960 2880" xmlns="http://www.w3.org/2000/svg" xmlns:xlink="http://www.w3.org/1999/xlink">
	<desc>Stata Graph - Graph</desc>
	<rect x="0" y="0" width="3960" height="2880" style="fill:#EAF2F3;stroke:none"/>
	<rect x="0.00" y="0.00" width="3959.88" height="2880.00" style="fill:#EAF2F3"/>
	<rect x="2.88" y="2.88" width="3954.12" height="2874.24" style="fill:none;stroke:#EAF2F3;stroke-width:5.76"/>
	<rect x="290.81" y="100.86" width="3568.21" height="2388.33" style="fill:#FFFFFF"/>
	<rect x="293.69" y="103.74" width="3562.45" height="2382.57" style="fill:none;stroke:#FFFFFF;stroke-width:5.76"/>
	<line x1="290.81" y1="2425.82" x2="3859.02" y2="2425.82" style="stroke:#EAF2F3;stroke-width:8.64"/>
	<line x1="290.81" y1="1886.13" x2="3859.02" y2="1886.13" style="stroke:#EAF2F3;stroke-width:8.64"/>
	<line x1="290.81" y1="1346.32" x2="3859.02" y2="1346.32" style="stroke:#EAF2F3;stroke-width:8.64"/>
	<line x1="290.81" y1="806.63" x2="3859.02" y2="806.63" style="stroke:#EAF2F3;stroke-width:8.64"/>
	<line x1="290.81" y1="266.94" x2="3859.02" y2="266.94" style="stroke:#EAF2F3;stroke-width:8.64"/>
	<circle cx="2122.68" cy="2006.55" r="26.35" style="fill:#1A476F"/>
	<circle cx="2122.68" cy="2006.55" r="22.03" style="fill:none;stroke:#1A476F;stroke-width:8.64"/>
	<circle cx="2136.54" cy="1796.04" r="26.35" style="fill:#1A476F"/>
	<circle cx="2136.54" cy="1796.04" r="22.03" style="fill:none;stroke:#1A476F;stroke-width:8.64"/>
	<circle cx="2140.13" cy="1420.32" r="26.35" style="fill:#1A476F"/>
	<circle cx="2140.13" cy="1420.32" r="22.03" style="fill:none;stroke:#1A476F;stroke-width:8.64"/>
	<circle cx="2182.70" cy="1810.52" r="26.35" style="fill:#1A476F"/>
	<circle cx="2182.70" cy="1810.52" r="22.03" style="fill:none;stroke:#1A476F;stroke-width:8.64"/>
	<circle cx="2220.20" cy="1230.73" r="26.35" style="fill:#1A476F"/>
	<circle cx="2220.20" cy="1230.73" r="22.03" style="fill:none;stroke:#1A476F;stroke-width:8.64"/>
	<circle cx="2221.93" cy="2118.54" r="26.35" style="fill:#1A476F"/>
	<circle cx="2221.93" cy="2118.54" r="22.03" style="fill:none;stroke:#1A476F;stroke-width:8.64"/>
	<circle cx="2236.53" cy="1303.75" r="26.35" style="fill:#1A476F"/>
	<circle cx="2236.53" cy="1303.75" r="22.03" style="fill:none;stroke:#1A476F;stroke-width:8.64"/>
	<circle cx="2243.71" cy="1552.99" r="26.35" style="fill:#1A476F"/>
	<circle cx="2243.71" cy="1552.99" r="22.03" style="fill:none;stroke:#1A476F;stroke-width:8.64"/>
	<circle cx="2268.96" cy="1562.52" r="26.35" style="fill:#1A476F"/>
	<circle cx="2268.96" cy="1562.52" r="22.03" style="fill:none;stroke:#1A476F;stroke-width:8.64"/>
	<circle cx="2280.09" cy="1226.40" r="26.35" style="fill:#1A476F"/>
	<circle cx="2280.09" cy="1226.40" r="22.03" style="fill:none;stroke:#1A476F;stroke-width:8.64"/>
	<circle cx="2293.34" cy="1547.05" r="26.35" style="fill:#1A476F"/>
	<circle cx="2293.34" cy="1547.05" r="22.03" style="fill:none;stroke:#1A476F;stroke-width:8.64"/>
	<circle cx="2381.82" cy="1745.67" r="26.35" style="fill:#1A476F"/>
	<circle cx="2381.82" cy="1745.67" r="22.03" style="fill:none;stroke:#1A476F;stroke-width:8.64"/>
	<circle cx="2430.82" cy="1547.42" r="26.35" style="fill:#1A476F"/>
	<circle cx="2430.82" cy="1547.42" r="22.03" style="fill:none;stroke:#1A476F;stroke-width:8.64"/>
	<circle cx="2462.38" cy="1466.24" r="26.35" style="fill:#1A476F"/>
	<circle cx="2462.38" cy="1466.24" r="22.03" style="fill:none;stroke:#1A476F;stroke-width:8.64"/>
	<circle cx="2497.15" cy="2101.59" r="26.35" style="fill:#1A476F"/>
	<circle cx="2497.15" cy="2101.59" r="22.03" style="fill:none;stroke:#1A476F;stroke-width:8.64"/>
	<circle cx="2573.01" cy="1959.89" r="26.35" style="fill:#1A476F"/>
	<circle cx="2573.01" cy="1959.89" r="22.03" style="fill:none;stroke:#1A476F;stroke-width:8.64"/>
	<circle cx="2618.80" cy="1568.95" r="26.35" style="fill:#1A476F"/>
	<circle cx="2618.80" cy="1568.95" r="22.03" style="fill:none;stroke:#1A476F;stroke-width:8.64"/>
	<circle cx="2624.24" cy="1969.67" r="26.35" style="fill:#1A476F"/>
	<circle cx="2624.24" cy="1969.67" r="22.03" style="fill:none;stroke:#1A476F;stroke-width:8.64"/>
	<circle cx="2689.34" cy="1820.05" r="26.35" style="fill:#1A476F"/>
	<circle cx="2689.34" cy="1820.05" r="22.03" style="fill:none;stroke:#1A476F;stroke-width:8.64"/>
	<circle cx="2697.50" cy="1295.21" r="26.35" style="fill:#1A476F"/>
	<circle cx="2697.50" cy="1295.21" r="22.03" style="fill:none;stroke:#1A476F;stroke-width:8.64"/>
	<circle cx="2723.49" cy="1470.44" r="26.35" style="fill:#1A476F"/>
	<circle cx="2723.49" cy="1470.44" r="22.03" style="fill:none;stroke:#1A476F;stroke-width:8.64"/>
	<circle cx="2735.86" cy="1118.12" r="26.35" style="fill:#1A476F"/>
	<circle cx="2735.86" cy="1118.12" r="22.03" style="fill:none;stroke:#1A476F;stroke-width:8.64"/>
	<circle cx="2780.17" cy="1291.87" r="26.35" style="fill:#1A476F"/>
	<circle cx="2780.17" cy="1291.87" r="22.03" style="fill:none;stroke:#1A476F;stroke-width:8.64"/>
	<circle cx="2848.11" cy="1251.03" r="26.35" style="fill:#1A476F"/>
	<circle cx="2848.11" cy="1251.03" r="22.03" style="fill:none;stroke:#1A476F;stroke-width:8.64"/>
	<circle cx="2896.62" cy="1632.44" r="26.35" style="fill:#1A476F"/>
	<circle cx="2896.62" cy="1632.44" r="22.03" style="fill:none;stroke:#1A476F;stroke-width:8.64"/>
	<circle cx="2929.29" cy="1647.78" r="26.35" style="fill:#1A476F"/>
	<circle cx="2929.29" cy="1647.78" r="22.03" style="fill:none;stroke:#1A476F;stroke-width:8.64"/>
	<circle cx="2948.47" cy="1502.99" r="26.35" style="fill:#1A476F"/>
	<circle cx="2948.47" cy="1502.99" r="22.03" style="fill:none;stroke:#1A476F;stroke-width:8.64"/>
	<circle cx="3021.97" cy="1937.12" r="26.35" style="fill:#1A476F"/>
	<circle cx="3021.97" cy="1937.12" r="22.03" style="fill:none;stroke:#1A476F;stroke-width:8.64"/>
	<circle cx="3048.09" cy="2111.86" r="26.35" style="fill:#1A476F"/>
	<circle cx="3048.09" cy="2111.86" r="22.03" style="fill:none;stroke:#1A476F;stroke-width:8.64"/>
	<circle cx="3092.02" cy="1507.82" r="26.35" style="fill:#1A476F"/>
	<circle cx="3092.02" cy="1507.82" r="22.03" style="fill:none;stroke:#1A476F;stroke-width:8.64"/>
	<circle cx="3092.76" cy="1116.14" r="26.35" style="fill:#1A476F"/>
	<circle cx="3092.76" cy="1116.14" r="22.03" style="fill:none;stroke:#1A476F;stroke-width:8.64"/>
	<circle cx="3129.27" cy="1935.39" r="26.35" style="fill:#1A476F"/>
	<circle cx="3129.27" cy="1935.39" r="22.03" style="fill:none;stroke:#1A476F;stroke-width:8.64"/>
	<circle cx="3147.09" cy="1539.87" r="26.35" style="fill:#1A476F"/>
	<circle cx="3147.09" cy="1539.87" r="22.03" style="fill:none;stroke:#1A476F;stroke-width:8.64"/>
	<circle cx="3182.85" cy="1537.02" r="26.35" style="fill:#1A476F"/>
	<circle cx="3182.85" cy="1537.02" r="22.03" style="fill:none;stroke:#1A476F;stroke-width:8.64"/>
	<circle cx="3242.25" cy="2182.15" r="26.35" style="fill:#1A476F"/>
	<circle cx="3242.25" cy="2182.15" r="22.03" style="fill:none;stroke:#1A476F;stroke-width:8.64"/>
	<circle cx="3340.51" cy="1630.46" r="26.35" style="fill:#1A476F"/>
	<circle cx="3340.51" cy="1630.46" r="22.03" style="fill:none;stroke:#1A476F;stroke-width:8.64"/>
	<circle cx="3370.95" cy="1659.29" r="26.35" style="fill:#1A476F"/>
	<circle cx="3370.95" cy="1659.29" r="22.03" style="fill:none;stroke:#1A476F;stroke-width:8.64"/>
	<circle cx="3399.04" cy="1272.31" r="26.35" style="fill:#1A476F"/>
	<circle cx="3399.04" cy="1272.31" r="22.03" style="fill:none;stroke:#1A476F;stroke-width:8.64"/>
	<circle cx="3470.94" cy="1245.34" r="26.35" style="fill:#1A476F"/>
	<circle cx="3470.94" cy="1245.34" r="22.03" style="fill:none;stroke:#1A476F;stroke-width:8.64"/>
	<circle cx="3477.13" cy="1434.93" r="26.35" style="fill:#1A476F"/>
	<circle cx="3477.13" cy="1434.93" r="22.03" style="fill:none;stroke:#1A476F;stroke-width:8.64"/>
	<circle cx="3477.62" cy="1573.16" r="26.35" style="fill:#1A476F"/>
	<circle cx="3477.62" cy="1573.16" r="22.03" style="fill:none;stroke:#1A476F;stroke-width:8.64"/>
	<circle cx="3531.33" cy="1539.25" r="26.35" style="fill:#1A476F"/>
	<circle cx="3531.33" cy="1539.25" r="22.03" style="fill:none;stroke:#1A476F;stroke-width:8.64"/>
	<circle cx="3547.05" cy="2217.67" r="26.35" style="fill:#1A476F"/>
	<circle cx="3547.05" cy="2217.67" r="22.03" style="fill:none;stroke:#1A476F;stroke-width:8.64"/>
	<circle cx="3607.07" cy="1043.62" r="26.35" style="fill:#1A476F"/>
	<circle cx="3607.07" cy="1043.62" r="22.03" style="fill:none;stroke:#1A476F;stroke-width:8.64"/>
	<circle cx="3663.25" cy="1601.13" r="26.35" style="fill:#1A476F"/>
	<circle cx="3663.25" cy="1601.13" r="22.03" style="fill:none;stroke:#1A476F;stroke-width:8.64"/>
	<circle cx="3687.13" cy="1348.42" r="26.35" style="fill:#1A476F"/>
	<circle cx="3687.13" cy="1348.42" r="22.03" style="fill:none;stroke:#1A476F;stroke-width:8.64"/>
	<circle cx="3724.75" cy="1626.62" r="26.35" style="fill:#1A476F"/>
	<circle cx="3724.75" cy="1626.62" r="22.03" style="fill:none;stroke:#1A476F;stroke-width:8.64"/>
	<circle cx="3732.80" cy="1032.11" r="26.35" style="fill:#1A476F"/>
	<circle cx="3732.80" cy="1032.11" r="22.03" style="fill:none;stroke:#1A476F;stroke-width:8.64"/>
	<circle cx="365.93" cy="1965.95" r="26.35" style="fill:#90353B"/>
	<circle cx="365.93" cy="1965.95" r="22.03" style="fill:none;stroke:#90353B;stroke-width:8.64"/>
	<circle cx="372.12" cy="1642.09" r="26.35" style="fill:#90353B"/>
	<circle cx="372.12" cy="1642.09" r="22.03" style="fill:none;stroke:#90353B;stroke-width:8.64"/>
	<circle cx="379.29" cy="1840.59" r="26.35" style="fill:#90353B"/>
	<circle cx="379.29" cy="1840.59" r="22.03" style="fill:none;stroke:#90353B;stroke-width:8.64"/>
	<circle cx="406.77" cy="1417.23" r="26.35" style="fill:#90353B"/>
	<circle cx="406.77" cy="1417.23" r="22.03" style="fill:none;stroke:#90353B;stroke-width:8.64"/>
	<circle cx="417.78" cy="1934.77" r="26.35" style="fill:#90353B"/>
	<circle cx="417.78" cy="1934.77" r="22.03" style="fill:none;stroke:#90353B;stroke-width:8.64"/>
	<circle cx="467.53" cy="2093.54" r="26.35" style="fill:#90353B"/>
	<circle cx="467.53" cy="2093.54" r="22.03" style="fill:none;stroke:#90353B;stroke-width:8.64"/>
	<circle cx="473.34" cy="2281.28" r="26.35" style="fill:#90353B"/>
	<circle cx="473.34" cy="2281.28" r="22.03" style="fill:none;stroke:#90353B;stroke-width:8.64"/>
	<circle cx="500.57" cy="1880.56" r="26.35" style="fill:#90353B"/>
	<circle cx="500.57" cy="1880.56" r="22.03" style="fill:none;stroke:#90353B;stroke-width:8.64"/>
	<circle cx="510.35" cy="1822.52" r="26.35" style="fill:#90353B"/>
	<circle cx="510.35" cy="1822.52" r="22.03" style="fill:none;stroke:#90353B;stroke-width:8.64"/>
	<circle cx="610.95" cy="1545.19" r="26.35" style="fill:#90353B"/>
	<circle cx="610.95" cy="1545.19" r="22.03" style="fill:none;stroke:#90353B;stroke-width:8.64"/>
	<circle cx="645.60" cy="1986.74" r="26.35" style="fill:#90353B"/>
	<circle cx="645.60" cy="1986.74" r="22.03" style="fill:none;stroke:#90353B;stroke-width:8.64"/>
	<circle cx="661.94" cy="1357.70" r="26.35" style="fill:#90353B"/>
	<circle cx="661.94" cy="1357.70" r="22.03" style="fill:none;stroke:#90353B;stroke-width:8.64"/>
	<circle cx="662.43" cy="1357.58" r="26.35" style="fill:#90353B"/>
	<circle cx="662.43" cy="1357.58" r="22.03" style="fill:none;stroke:#90353B;stroke-width:8.64"/>
	<circle cx="685.82" cy="1572.42" r="26.35" style="fill:#90353B"/>
	<circle cx="685.82" cy="1572.42" r="22.03" style="fill:none;stroke:#90353B;stroke-width:8.64"/>
	<circle cx="707.23" cy="1905.56" r="26.35" style="fill:#90353B"/>
	<circle cx="707.23" cy="1905.56" r="22.03" style="fill:none;stroke:#90353B;stroke-width:8.64"/>
	<circle cx="718.25" cy="1925.61" r="26.35" style="fill:#90353B"/>
	<circle cx="718.25" cy="1925.61" r="22.03" style="fill:none;stroke:#90353B;stroke-width:8.64"/>
	<circle cx="729.01" cy="1533.68" r="26.35" style="fill:#90353B"/>
	<circle cx="729.01" cy="1533.68" r="22.03" style="fill:none;stroke:#90353B;stroke-width:8.64"/>
	<circle cx="810.69" cy="1706.81" r="26.35" style="fill:#90353B"/>
	<circle cx="810.69" cy="1706.81" r="22.03" style="fill:none;stroke:#90353B;stroke-width:8.64"/>
	<circle cx="849.54" cy="1661.40" r="26.35" style="fill:#90353B"/>
	<circle cx="849.54" cy="1661.40" r="22.03" style="fill:none;stroke:#90353B;stroke-width:8.64"/>
	<circle cx="898.18" cy="1490.99" r="26.35" style="fill:#90353B"/>
	<circle cx="898.18" cy="1490.99" r="22.03" style="fill:none;stroke:#90353B;stroke-width:8.64"/>
	<circle cx="921.57" cy="1405.72" r="26.35" style="fill:#90353B"/>
	<circle cx="921.57" cy="1405.72" r="22.03" style="fill:none;stroke:#90353B;stroke-width:8.64"/>
	<circle cx="961.04" cy="1514.00" r="26.35" style="fill:#90353B"/>
	<circle cx="961.04" cy="1514.00" r="22.03" style="fill:none;stroke:#90353B;stroke-width:8.64"/>
	<circle cx="988.64" cy="1921.65" r="26.35" style="fill:#90353B"/>
	<circle cx="988.64" cy="1921.65" r="22.03" style="fill:none;stroke:#90353B;stroke-width:8.64"/>
	<circle cx="991.49" cy="995.97" r="26.35" style="fill:#90353B"/>
	<circle cx="991.49" cy="995.97" r="22.03" style="fill:none;stroke:#90353B;stroke-width:8.64"/>
	<circle cx="1017.23" cy="1407.45" r="26.35" style="fill:#90353B"/>
	<circle cx="1017.23" cy="1407.45" r="22.03" style="fill:none;stroke:#90353B;stroke-width:8.64"/>
	<circle cx="1053.61" cy="1487.15" r="26.35" style="fill:#90353B"/>
	<circle cx="1053.61" cy="1487.15" r="22.03" style="fill:none;stroke:#90353B;stroke-width:8.64"/>
	<circle cx="1077.37" cy="1765.84" r="26.35" style="fill:#90353B"/>
	<circle cx="1077.37" cy="1765.84" r="22.03" style="fill:none;stroke:#90353B;stroke-width:8.64"/>
	<circle cx="1179.83" cy="484.37" r="26.35" style="fill:#90353B"/>
	<circle cx="1179.83" cy="484.37" r="22.03" style="fill:none;stroke:#90353B;stroke-width:8.64"/>
	<circle cx="1328.70" cy="1590.36" r="26.35" style="fill:#90353B"/>
	<circle cx="1328.70" cy="1590.36" r="22.03" style="fill:none;stroke:#90353B;stroke-width:8.64"/>
	<circle cx="1350.24" cy="974.81" r="26.35" style="fill:#90353B"/>
	<circle cx="1350.24" cy="974.81" r="22.03" style="fill:none;stroke:#90353B;stroke-width:8.64"/>
	<circle cx="1364.10" cy="690.55" r="26.35" style="fill:#90353B"/>
	<circle cx="1364.10" cy="690.55" r="22.03" style="fill:none;stroke:#90353B;stroke-width:8.64"/>
	<circle cx="1428.45" cy="564.57" r="26.35" style="fill:#90353B"/>
	<circle cx="1428.45" cy="564.57" r="22.03" style="fill:none;stroke:#90353B;stroke-width:8.64"/>
	<circle cx="1460.00" cy="605.28" r="26.35" style="fill:#90353B"/>
	<circle cx="1460.00" cy="605.28" r="22.03" style="fill:none;stroke:#90353B;stroke-width:8.64"/>
	<circle cx="1479.68" cy="785.59" r="26.35" style="fill:#90353B"/>
	<circle cx="1479.68" cy="785.59" r="22.03" style="fill:none;stroke:#90353B;stroke-width:8.64"/>
	<circle cx="1540.19" cy="760.34" r="26.35" style="fill:#90353B"/>
	<circle cx="1540.19" cy="760.34" r="22.03" style="fill:none;stroke:#90353B;stroke-width:8.64"/>
	<circle cx="1582.52" cy="678.29" r="26.35" style="fill:#90353B"/>
	<circle cx="1582.52" cy="678.29" r="22.03" style="fill:none;stroke:#90353B;stroke-width:8.64"/>
	<circle cx="1587.09" cy="1644.19" r="26.35" style="fill:#90353B"/>
	<circle cx="1587.09" cy="1644.19" r="22.03" style="fill:none;stroke:#90353B;stroke-width:8.64"/>
	<circle cx="1597.37" cy="1256.10" r="26.35" style="fill:#90353B"/>
	<circle cx="1597.37" cy="1256.10" r="22.03" style="fill:none;stroke:#90353B;stroke-width:8.64"/>
	<circle cx="1597.86" cy="1052.28" r="26.35" style="fill:#90353B"/>
	<circle cx="1597.86" cy="1052.28" r="22.03" style="fill:none;stroke:#90353B;stroke-width:8.64"/>
	<circle cx="1639.07" cy="643.77" r="26.35" style="fill:#90353B"/>
	<circle cx="1639.07" cy="643.77" r="22.03" style="fill:none;stroke:#90353B;stroke-width:8.64"/>
	<circle cx="1640.18" cy="596.99" r="26.35" style="fill:#90353B"/>
	<circle cx="1640.18" cy="596.99" r="22.03" style="fill:none;stroke:#90353B;stroke-width:8.64"/>
	<circle cx="1670.38" cy="1277.39" r="26.35" style="fill:#90353B"/>
	<circle cx="1670.38" cy="1277.39" r="22.03" style="fill:none;stroke:#90353B;stroke-width:8.64"/>
	<circle cx="1725.45" cy="745.74" r="26.35" style="fill:#90353B"/>
	<circle cx="1725.45" cy="745.74" r="22.03" style="fill:none;stroke:#90353B;stroke-width:8.64"/>
	<circle cx="1749.70" cy="1112.67" r="26.35" style="fill:#90353B"/>
	<circle cx="1749.70" cy="1112.67" r="22.03" style="fill:none;stroke:#90353B;stroke-width:8.64"/>
	<circle cx="1778.16" cy="797.10" r="26.35" style="fill:#90353B"/>
	<circle cx="1778.16" cy="797.10" r="22.03" style="fill:none;stroke:#90353B;stroke-width:8.64"/>
	<circle cx="1932.36" cy="831.63" r="26.35" style="fill:#90353B"/>
	<circle cx="1932.36" cy="831.63" r="22.03" style="fill:none;stroke:#90353B;stroke-width:8.64"/>
	<circle cx="1932.36" cy="1190.02" r="26.35" style="fill:#90353B"/>
	<circle cx="1932.36" cy="1190.02" r="22.03" style="fill:none;stroke:#90353B;stroke-width:8.64"/>
	<circle cx="1960.20" cy="730.15" r="26.35" style="fill:#90353B"/>
	<circle cx="1960.20" cy="730.15" r="22.03" style="fill:none;stroke:#90353B;stroke-width:8.64"/>
	<circle cx="1961.81" cy="985.20" r="26.35" style="fill:#90353B"/>
	<circle cx="1961.81" cy="985.20" r="22.03" style="fill:none;stroke:#90353B;stroke-width:8.64"/>
	<circle cx="1995.47" cy="743.76" r="26.35" style="fill:#90353B"/>
	<circle cx="1995.47" cy="743.76" r="22.03" style="fill:none;stroke:#90353B;stroke-width:8.64"/>
	<circle cx="2021.46" cy="164.22" r="26.35" style="fill:#90353B"/>
	<circle cx="2021.46" cy="164.22" r="22.03" style="fill:none;stroke:#90353B;stroke-width:8.64"/>
	<circle cx="2064.27" cy="251.22" r="26.35" style="fill:#90353B"/>
	<circle cx="2064.27" cy="251.22" r="22.03" style="fill:none;stroke:#90353B;stroke-width:8.64"/>
	<line x1="2122.68" y1="1656.45" x2="2136.54" y2="1655.08" stroke-linecap="round" style="stroke:#1A476F;stroke-width:8.64"/>
	<line x1="2136.54" y1="1655.08" x2="2140.13" y2="1654.84" stroke-linecap="round" style="stroke:#1A476F;stroke-width:8.64"/>
	<line x1="2140.13" y1="1654.84" x2="2182.70" y2="1650.75" stroke-linecap="round" style="stroke:#1A476F;stroke-width:8.64"/>
	<line x1="2182.70" y1="1650.75" x2="2220.20" y2="1647.16" stroke-linecap="round" style="stroke:#1A476F;stroke-width:8.64"/>
	<line x1="2220.20" y1="1647.16" x2="2221.93" y2="1647.04" stroke-linecap="round" style="stroke:#1A476F;stroke-width:8.64"/>
	<line x1="2221.93" y1="1647.04" x2="2236.53" y2="1645.68" stroke-linecap="round" style="stroke:#1A476F;stroke-width:8.64"/>
	<line x1="2236.53" y1="1645.68" x2="2243.71" y2="1644.94" stroke-linecap="round" style="stroke:#1A476F;stroke-width:8.64"/>
	<line x1="2243.71" y1="1644.94" x2="2268.96" y2="1642.59" stroke-linecap="round" style="stroke:#1A476F;stroke-width:8.64"/>
	<line x1="2268.96" y1="1642.59" x2="2280.09" y2="1641.47" stroke-linecap="round" style="stroke:#1A476F;stroke-width:8.64"/>
	<line x1="2280.09" y1="1641.47" x2="2293.34" y2="1640.23" stroke-linecap="round" style="stroke:#1A476F;stroke-width:8.64"/>
	<line x1="2293.34" y1="1640.23" x2="2381.82" y2="1631.82" stroke-linecap="round" style="stroke:#1A476F;stroke-width:8.64"/>
	<line x1="2381.82" y1="1631.82" x2="2430.82" y2="1627.12" stroke-linecap="round" style="stroke:#1A476F;stroke-width:8.64"/>
	<line x1="2430.82" y1="1627.12" x2="2462.38" y2="1624.15" stroke-linecap="round" style="stroke:#1A476F;stroke-width:8.64"/>
	<line x1="2462.38" y1="1624.15" x2="2497.15" y2="1620.80" stroke-linecap="round" style="stroke:#1A476F;stroke-width:8.64"/>
	<line x1="2497.15" y1="1620.80" x2="2573.01" y2="1613.63" stroke-linecap="round" style="stroke:#1A476F;stroke-width:8.64"/>
	<line x1="2573.01" y1="1613.63" x2="2618.80" y2="1609.30" stroke-linecap="round" style="stroke:#1A476F;stroke-width:8.64"/>
	<line x1="2618.80" y1="1609.30" x2="2624.24" y2="1608.68" stroke-linecap="round" style="stroke:#1A476F;stroke-width:8.64"/>
	<line x1="2624.24" y1="1608.68" x2="2689.34" y2="1602.49" stroke-linecap="round" style="stroke:#1A476F;stroke-width:8.64"/>
	<line x1="2689.34" y1="1602.49" x2="2697.50" y2="1601.75" stroke-linecap="round" style="stroke:#1A476F;stroke-width:8.64"/>
	<line x1="2697.50" y1="1601.75" x2="2723.49" y2="1599.27" stroke-linecap="round" style="stroke:#1A476F;stroke-width:8.64"/>
	<line x1="2723.49" y1="1599.27" x2="2735.86" y2="1598.03" stroke-linecap="round" style="stroke:#1A476F;stroke-width:8.64"/>
	<line x1="2735.86" y1="1598.03" x2="2780.17" y2="1593.83" stroke-linecap="round" style="stroke:#1A476F;stroke-width:8.64"/>
	<line x1="2780.17" y1="1593.83" x2="2848.11" y2="1587.39" stroke-linecap="round" style="stroke:#1A476F;stroke-width:8.64"/>
	<line x1="2848.11" y1="1587.39" x2="2896.62" y2="1582.81" stroke-linecap="round" style="stroke:#1A476F;stroke-width:8.64"/>
	<line x1="2896.62" y1="1582.81" x2="2929.29" y2="1579.72" stroke-linecap="round" style="stroke:#1A476F;stroke-width:8.64"/>
	<line x1="2929.29" y1="1579.72" x2="2948.47" y2="1577.86" stroke-linecap="round" style="stroke:#1A476F;stroke-width:8.64"/>
	<line x1="2948.47" y1="1577.86" x2="3021.97" y2="1570.81" stroke-linecap="round" style="stroke:#1A476F;stroke-width:8.64"/>
	<line x1="3021.97" y1="1570.81" x2="3048.09" y2="1568.33" stroke-linecap="round" style="stroke:#1A476F;stroke-width:8.64"/>
	<line x1="3048.09" y1="1568.33" x2="3092.02" y2="1564.25" stroke-linecap="round" style="stroke:#1A476F;stroke-width:8.64"/>
	<line x1="3092.02" y1="1564.25" x2="3092.76" y2="1564.13" stroke-linecap="round" style="stroke:#1A476F;stroke-width:8.64"/>
	<line x1="3092.76" y1="1564.13" x2="3129.27" y2="1560.66" stroke-linecap="round" style="stroke:#1A476F;stroke-width:8.64"/>
	<line x1="3129.27" y1="1560.66" x2="3147.09" y2="1558.93" stroke-linecap="round" style="stroke:#1A476F;stroke-width:8.64"/>
	<line x1="3147.09" y1="1558.93" x2="3182.85" y2="1555.59" stroke-linecap="round" style="stroke:#1A476F;stroke-width:8.64"/>
	<line x1="3182.85" y1="1555.59" x2="3242.25" y2="1549.89" stroke-linecap="round" style="stroke:#1A476F;stroke-width:8.64"/>
	<line x1="3242.25" y1="1549.89" x2="3340.51" y2="1540.49" stroke-linecap="round" style="stroke:#1A476F;stroke-width:8.64"/>
	<line x1="3340.51" y1="1540.49" x2="3370.95" y2="1537.64" stroke-linecap="round" style="stroke:#1A476F;stroke-width:8.64"/>
	<line x1="3370.95" y1="1537.64" x2="3399.04" y2="1534.92" stroke-linecap="round" style="stroke:#1A476F;stroke-width:8.64"/>
	<line x1="3399.04" y1="1534.92" x2="3470.94" y2="1528.11" stroke-linecap="round" style="stroke:#1A476F;stroke-width:8.64"/>
	<line x1="3470.94" y1="1528.11" x2="3477.13" y2="1527.49" stroke-linecap="round" style="stroke:#1A476F;stroke-width:8.64"/>
	<line x1="3477.13" y1="1527.49" x2="3477.62" y2="1527.49" stroke-linecap="round" style="stroke:#1A476F;stroke-width:8.64"/>
	<line x1="3477.62" y1="1527.49" x2="3531.33" y2="1522.42" stroke-linecap="round" style="stroke:#1A476F;stroke-width:8.64"/>
	<line x1="3531.33" y1="1522.42" x2="3547.05" y2="1520.81" stroke-linecap="round" style="stroke:#1A476F;stroke-width:8.64"/>
	<line x1="3547.05" y1="1520.81" x2="3607.07" y2="1515.12" stroke-linecap="round" style="stroke:#1A476F;stroke-width:8.64"/>
	<line x1="3607.07" y1="1515.12" x2="3663.25" y2="1509.80" stroke-linecap="round" style="stroke:#1A476F;stroke-width:8.64"/>
	<line x1="3663.25" y1="1509.80" x2="3687.13" y2="1507.57" stroke-linecap="round" style="stroke:#1A476F;stroke-width:8.64"/>
	<line x1="3687.13" y1="1507.57" x2="3724.75" y2="1503.98" stroke-linecap="round" style="stroke:#1A476F;stroke-width:8.64"/>
	<line x1="3724.75" y1="1503.98" x2="3732.80" y2="1503.24" stroke-linecap="round" style="stroke:#1A476F;stroke-width:8.64"/>
	<line x1="365.93" y1="1903.95" x2="372.12" y2="1899.13" stroke-linecap="round" style="stroke:#90353B;stroke-width:8.64"/>
	<line x1="372.12" y1="1899.13" x2="379.29" y2="1893.43" stroke-linecap="round" style="stroke:#90353B;stroke-width:8.64"/>
	<line x1="379.29" y1="1893.43" x2="406.77" y2="1872.02" stroke-linecap="round" style="stroke:#90353B;stroke-width:8.64"/>
	<line x1="406.77" y1="1872.02" x2="417.78" y2="1863.36" stroke-linecap="round" style="stroke:#90353B;stroke-width:8.64"/>
	<line x1="417.78" y1="1863.36" x2="467.53" y2="1824.50" stroke-linecap="round" style="stroke:#90353B;stroke-width:8.64"/>
	<line x1="467.53" y1="1824.50" x2="473.34" y2="1819.92" stroke-linecap="round" style="stroke:#90353B;stroke-width:8.64"/>
	<line x1="473.34" y1="1819.92" x2="500.57" y2="1798.51" stroke-linecap="round" style="stroke:#90353B;stroke-width:8.64"/>
	<line x1="500.57" y1="1798.51" x2="510.35" y2="1790.84" stroke-linecap="round" style="stroke:#90353B;stroke-width:8.64"/>
	<line x1="510.35" y1="1790.84" x2="610.95" y2="1712.13" stroke-linecap="round" style="stroke:#90353B;stroke-width:8.64"/>
	<line x1="610.95" y1="1712.13" x2="645.60" y2="1685.03" stroke-linecap="round" style="stroke:#90353B;stroke-width:8.64"/>
	<line x1="645.60" y1="1685.03" x2="661.94" y2="1672.16" stroke-linecap="round" style="stroke:#90353B;stroke-width:8.64"/>
	<line x1="661.94" y1="1672.16" x2="662.43" y2="1671.79" stroke-linecap="round" style="stroke:#90353B;stroke-width:8.64"/>
	<line x1="662.43" y1="1671.79" x2="685.82" y2="1653.48" stroke-linecap="round" style="stroke:#90353B;stroke-width:8.64"/>
	<line x1="685.82" y1="1653.48" x2="707.23" y2="1636.77" stroke-linecap="round" style="stroke:#90353B;stroke-width:8.64"/>
	<line x1="707.23" y1="1636.77" x2="718.25" y2="1628.11" stroke-linecap="round" style="stroke:#90353B;stroke-width:8.64"/>
	<line x1="718.25" y1="1628.11" x2="729.01" y2="1619.69" stroke-linecap="round" style="stroke:#90353B;stroke-width:8.64"/>
	<line x1="729.01" y1="1619.69" x2="810.69" y2="1555.83" stroke-linecap="round" style="stroke:#90353B;stroke-width:8.64"/>
	<line x1="810.69" y1="1555.83" x2="849.54" y2="1525.39" stroke-linecap="round" style="stroke:#90353B;stroke-width:8.64"/>
	<line x1="849.54" y1="1525.39" x2="898.18" y2="1487.27" stroke-linecap="round" style="stroke:#90353B;stroke-width:8.64"/>
	<line x1="898.18" y1="1487.27" x2="921.57" y2="1468.96" stroke-linecap="round" style="stroke:#90353B;stroke-width:8.64"/>
	<line x1="921.57" y1="1468.96" x2="961.04" y2="1438.02" stroke-linecap="round" style="stroke:#90353B;stroke-width:8.64"/>
	<line x1="961.04" y1="1438.02" x2="988.64" y2="1416.49" stroke-linecap="round" style="stroke:#90353B;stroke-width:8.64"/>
	<line x1="988.64" y1="1416.49" x2="991.49" y2="1414.14" stroke-linecap="round" style="stroke:#90353B;stroke-width:8.64"/>
	<line x1="991.49" y1="1414.14" x2="1017.23" y2="1394.09" stroke-linecap="round" style="stroke:#90353B;stroke-width:8.64"/>
	<line x1="1017.23" y1="1394.09" x2="1053.61" y2="1365.62" stroke-linecap="round" style="stroke:#90353B;stroke-width:8.64"/>
	<line x1="1053.61" y1="1365.62" x2="1077.37" y2="1347.06" stroke-linecap="round" style="stroke:#90353B;stroke-width:8.64"/>
	<line x1="1077.37" y1="1347.06" x2="1179.83" y2="1266.74" stroke-linecap="round" style="stroke:#90353B;stroke-width:8.64"/>
	<line x1="1179.83" y1="1266.74" x2="1328.70" y2="1150.17" stroke-linecap="round" style="stroke:#90353B;stroke-width:8.64"/>
	<line x1="1328.70" y1="1150.17" x2="1350.24" y2="1133.46" stroke-linecap="round" style="stroke:#90353B;stroke-width:8.64"/>
	<line x1="1350.24" y1="1133.46" x2="1364.10" y2="1122.57" stroke-linecap="round" style="stroke:#90353B;stroke-width:8.64"/>
	<line x1="1364.10" y1="1122.57" x2="1428.45" y2="1072.20" stroke-linecap="round" style="stroke:#90353B;stroke-width:8.64"/>
	<line x1="1428.45" y1="1072.20" x2="1460.00" y2="1047.45" stroke-linecap="round" style="stroke:#90353B;stroke-width:8.64"/>
	<line x1="1460.00" y1="1047.45" x2="1479.68" y2="1031.98" stroke-linecap="round" style="stroke:#90353B;stroke-width:8.64"/>
	<line x1="1479.68" y1="1031.98" x2="1540.19" y2="984.59" stroke-linecap="round" style="stroke:#90353B;stroke-width:8.64"/>
	<line x1="1540.19" y1="984.59" x2="1582.52" y2="951.54" stroke-linecap="round" style="stroke:#90353B;stroke-width:8.64"/>
	<line x1="1582.52" y1="951.54" x2="1587.09" y2="947.95" stroke-linecap="round" style="stroke:#90353B;stroke-width:8.64"/>
	<line x1="1587.09" y1="947.95" x2="1597.37" y2="939.91" stroke-linecap="round" style="stroke:#90353B;stroke-width:8.64"/>
	<line x1="1597.37" y1="939.91" x2="1597.86" y2="939.54" stroke-linecap="round" style="stroke:#90353B;stroke-width:8.64"/>
	<line x1="1597.86" y1="939.54" x2="1639.07" y2="907.24" stroke-linecap="round" style="stroke:#90353B;stroke-width:8.64"/>
	<line x1="1639.07" y1="907.24" x2="1640.18" y2="906.37" stroke-linecap="round" style="stroke:#90353B;stroke-width:8.64"/>
	<line x1="1640.18" y1="906.37" x2="1670.38" y2="882.74" stroke-linecap="round" style="stroke:#90353B;stroke-width:8.64"/>
	<line x1="1670.38" y1="882.74" x2="1725.45" y2="839.55" stroke-linecap="round" style="stroke:#90353B;stroke-width:8.64"/>
	<line x1="1725.45" y1="839.55" x2="1749.70" y2="820.61" stroke-linecap="round" style="stroke:#90353B;stroke-width:8.64"/>
	<line x1="1749.70" y1="820.61" x2="1778.16" y2="798.34" stroke-linecap="round" style="stroke:#90353B;stroke-width:8.64"/>
	<line x1="1778.16" y1="798.34" x2="1932.36" y2="677.68" stroke-linecap="round" style="stroke:#90353B;stroke-width:8.64"/>
	<line x1="1932.36" y1="677.68" x2="1932.36" y2="677.55" stroke-linecap="round" style="stroke:#90353B;stroke-width:8.64"/>
	<line x1="1932.36" y1="677.55" x2="1960.20" y2="655.77" stroke-linecap="round" style="stroke:#90353B;stroke-width:8.64"/>
	<line x1="1960.20" y1="655.77" x2="1961.81" y2="654.66" stroke-linecap="round" style="stroke:#90353B;stroke-width:8.64"/>
	<line x1="1961.81" y1="654.66" x2="1995.47" y2="628.17" stroke-linecap="round" style="stroke:#90353B;stroke-width:8.64"/>
	<line x1="1995.47" y1="628.17" x2="2021.46" y2="607.88" stroke-linecap="round" style="stroke:#90353B;stroke-width:8.64"/>
	<line x1="2021.46" y1="607.88" x2="2064.27" y2="574.34" stroke-linecap="round" style="stroke:#90353B;stroke-width:8.64"/>
	<line x1="290.81" y1="2489.19" x2="290.81" y2="100.86" style="stroke:#000000;stroke-width:5.76"/>
	<line x1="290.81" y1="2425.82" x2="250.84" y2="2425.82" style="stroke:#000000;stroke-width:5.76"/>
	<text x="200.73" y="2425.82" style="font-family:'Helvetica';font-size:99.99px;fill:#000000" transform="rotate(-90 200.73,2425.82)" text-anchor="middle">-2</text>
	<line x1="290.81" y1="1886.13" x2="250.84" y2="1886.13" style="stroke:#000000;stroke-width:5.76"/>
	<text x="200.73" y="1886.13" style="font-family:'Helvetica';font-size:99.99px;fill:#000000" transform="rotate(-90 200.73,1886.13)" text-anchor="middle">0</text>
	<line x1="290.81" y1="1346.32" x2="250.84" y2="1346.32" style="stroke:#000000;stroke-width:5.76"/>
	<text x="200.73" y="1346.32" style="font-family:'Helvetica';font-size:99.99px;fill:#000000" transform="rotate(-90 200.73,1346.32)" text-anchor="middle">2</text>
	<line x1="290.81" y1="806.63" x2="250.84" y2="806.63" style="stroke:#000000;stroke-width:5.76"/>
	<text x="200.73" y="806.63" style="font-family:'Helvetica';font-size:99.99px;fill:#000000" transform="rotate(-90 200.73,806.63)" text-anchor="middle">4</text>
	<line x1="290.81" y1="266.94" x2="250.84" y2="266.94" style="stroke:#000000;stroke-width:5.76"/>
	<text x="200.73" y="266.94" style="font-family:'Helvetica';font-size:99.99px;fill:#000000" transform="rotate(-90 200.73,266.94)" text-anchor="middle">6</text>
	<line x1="290.81" y1="2489.19" x2="3859.02" y2="2489.19" style="stroke:#000000;stroke-width:5.76"/>
	<line x1="354.17" y1="2489.19" x2="354.17" y2="2529.16" style="stroke:#000000;stroke-width:5.76"/>
	<text x="354.17" y="2619.14" style="font-family:'Helvetica';font-size:99.99px;fill:#000000" text-anchor="middle">0</text>
	<line x1="1042.47" y1="2489.19" x2="1042.47" y2="2529.16" style="stroke:#000000;stroke-width:5.76"/>
	<text x="1042.47" y="2619.14" style="font-family:'Helvetica';font-size:99.99px;fill:#000000" text-anchor="middle">2</text>
	<line x1="1730.77" y1="2489.19" x2="1730.77" y2="2529.16" style="stroke:#000000;stroke-width:5.76"/>
	<text x="1730.77" y="2619.14" style="font-family:'Helvetica';font-size:99.99px;fill:#000000" text-anchor="middle">4</text>
	<line x1="2419.07" y1="2489.19" x2="2419.07" y2="2529.16" style="stroke:#000000;stroke-width:5.76"/>
	<text x="2419.07" y="2619.14" style="font-family:'Helvetica';font-size:99.99px;fill:#000000" text-anchor="middle">6</text>
	<line x1="3107.36" y1="2489.19" x2="3107.36" y2="2529.16" style="stroke:#000000;stroke-width:5.76"/>
	<text x="3107.36" y="2619.14" style="font-family:'Helvetica';font-size:99.99px;fill:#000000" text-anchor="middle">8</text>
	<line x1="3795.66" y1="2489.19" x2="3795.66" y2="2529.16" style="stroke:#000000;stroke-width:5.76"/>
	<text x="3795.66" y="2619.14" style="font-family:'Helvetica';font-size:99.99px;fill:#000000" text-anchor="middle">10</text>
	<text x="2074.92" y="2729.16" style="font-family:'Helvetica';font-size:99.99px;fill:#000000" text-anchor="middle">x</text>
</svg>
