<?xml version="1.0" encoding="UTF-8" standalone="no"?>
<!-- This is a Stata 15.1 generated SVG file (http://www.stata.com) -->

<svg version="1.1" width="5.50in" height="4.00in" viewBox="0 0 3960 2880" xmlns="http://www.w3.org/2000/svg" xmlns:xlink="http://www.w3.org/1999/xlink">
	<desc>Stata Graph - Graph</desc>
	<rect x="0" y="0" width="3960" height="2880" style="fill:#EAF2F3;stroke:none"/>
	<rect x="0.00" y="0.00" width="3959.88" height="2880.00" style="fill:#EAF2F3"/>
	<rect x="2.88" y="2.88" width="3954.12" height="2874.24" style="fill:none;stroke:#EAF2F3;stroke-width:5.76"/>
	<rect x="290.81" y="100.86" width="3568.21" height="2388.33" style="fill:#FFFFFF"/>
	<rect x="293.69" y="103.74" width="3562.45" height="2382.57" style="fill:none;stroke:#FFFFFF;stroke-width:5.76"/>
	<line x1="290.81" y1="2425.82" x2="3859.02" y2="2425.82" style="stroke:#EAF2F3;stroke-width:8.64"/>
	<line x1="290.81" y1="1886.13" x2="3859.02" y2="1886.13" style="stroke:#EAF2F3;stroke-width:8.64"/>
	<line x1="290.81" y1="1346.32" x2="3859.02" y2="1346.32" style="stroke:#EAF2F3;stroke-width:8.64"/>
	<line x1="290.81" y1="806.63" x2="3859.02" y2="806.63" style="stroke:#EAF2F3;stroke-width:8.64"/>
	<line x1="290.81" y1="266.94" x2="3859.02" y2="266.94" style="stroke:#EAF2F3;stroke-width:8.64"/>
	<circle cx="2122.68" cy="2006.55" r="26.35" style="fill:#1A476F"/>
	<circle cx="2122.68" cy="2006.55" r="22.03" style="fill:none;stroke:#1A476F;stroke-width:8.64"/>
	<circle cx="2136.54" cy="1796.04" r="26.35" style="fill:#1A476F"/>
	<circle cx="2136.54" cy="1796.04" r="22.03" style="fill:none;stroke:#1A476F;stroke-width:8.64"/>
	<circle cx="2140.13" cy="1420.32" r="26.35" style="fill:#1A476F"/>
	<circle cx="2140.13" cy="1420.32" r="22.03" style="fill:none;stroke:#1A476F;stroke-width:8.64"/>
	<circle cx="2182.70" cy="1810.52" r="26.35" style="fill:#1A476F"/>
	<circle cx="2182.70" cy="1810.52" r="22.03" style="fill:none;stroke:#1A476F;stroke-width:8.64"/>
	<circle cx="2220.20" cy="1230.73" r="26.35" style="fill:#1A476F"/>
	<circle cx="2220.20" cy="1230.73" r="22.03" style="fill:none;stroke:#1A476F;stroke-width:8.64"/>
	<circle cx="2221.93" cy="2118.54" r="26.35" style="fill:#1A476F"/>
	<circle cx="2221.93" cy="2118.54" r="22.03" style="fill:none;stroke:#1A476F;stroke-width:8.64"/>
	<circle cx="2236.53" cy="1303.75" r="26.35" style="fill:#1A476F"/>
	<circle cx="2236.53" cy="1303.75" r="22.03" style="fill:none;stroke:#1A476F;stroke-width:8.64"/>
	<circle cx="2243.71" cy="1552.99" r="26.35" style="fill:#1A476F"/>
	<circle cx="2243.71" cy="1552.99" r="22.03" style="fill:none;stroke:#1A476F;stroke-width:8.64"/>
	<circle cx="2268.96" cy="1562.52" r="26.35" style="fill:#1A476F"/>
	<circle cx="2268.96" cy="1562.52" r="22.03" style="fill:none;stroke:#1A476F;stroke-width:8.64"/>
	<circle cx="2280.09" cy="1226.40" r="26.35" style="fill:#1A476F"/>
	<circle cx="2280.09" cy="1226.40" r="22.03" style="fill:none;stroke:#1A476F;stroke-width:8.64"/>
	<circle cx="2293.34" cy="1547.05" r="26.35" style="fill:#1A476F"/>
	<circle cx="2293.34" cy="1547.05" r="22.03" style="fill:none;stroke:#1A476F;stroke-width:8.64"/>
	<circle cx="2381.82" cy="1745.67" r="26.35" style="fill:#1A476F"/>
	<circle cx="2381.82" cy="1745.67" r="22.03" style="fill:none;stroke:#1A476F;stroke-width:8.64"/>
	<circle cx="2430.82" cy="1547.42" r="26.35" style="fill:#1A476F"/>
	<circle cx="2430.82" cy="1547.42" r="22.03" style="fill:none;stroke:#1A476F;stroke-width:8.64"/>
	<circle cx="2462.38" cy="1466.24" r="26.35" style="fill:#1A476F"/>
	<circle cx="2462.38" cy="1466.24" r="22.03" style="fill:none;stroke:#1A476F;stroke-width:8.64"/>
	<circle cx="2497.15" cy="2101.59" r="26.35" style="fill:#1A476F"/>
	<circle cx="2497.15" cy="2101.59" r="22.03" style="fill:none;stroke:#1A476F;stroke-width:8.64"/>
	<circle cx="2573.01" cy="1959.89" r="26.35" style="fill:#1A476F"/>
	<circle cx="2573.01" cy="1959.89" r="22.03" style="fill:none;stroke:#1A476F;stroke-width:8.64"/>
	<circle cx="2618.80" cy="1568.95" r="26.35" style="fill:#1A476F"/>
	<circle cx="2618.80" cy="1568.95" r="22.03" style="fill:none;stroke:#1A476F;stroke-width:8.64"/>
	<circle cx="2624.24" cy="1969.67" r="26.35" style="fill:#1A476F"/>
	<circle cx="2624.24" cy="1969.67" r="22.03" style="fill:none;stroke:#1A476F;stroke-width:8.64"/>
	<circle cx="2689.34" cy="1820.05" r="26.35" style="fill:#1A476F"/>
	<circle cx="2689.34" cy="1820.05" r="22.03" style="fill:none;stroke:#1A476F;stroke-width:8.64"/>
	<circle cx="2697.50" cy="1295.21" r="26.35" style="fill:#1A476F"/>
	<circle cx="2697.50" cy="1295.21" r="22.03" style="fill:none;stroke:#1A476F;stroke-width:8.64"/>
	<circle cx="2723.49" cy="1470.44" r="26.35" style="fill:#1A476F"/>
	<circle cx="2723.49" cy="1470.44" r="22.03" style="fill:none;stroke:#1A476F;stroke-width:8.64"/>
	<circle cx="2735.86" cy="1118.12" r="26.35" style="fill:#1A476F"/>
	<circle cx="2735.86" cy="1118.12" r="22.03" style="fill:none;stroke:#1A476F;stroke-width:8.64"/>
	<circle cx="2780.17" cy="1291.87" r="26.35" style="fill:#1A476F"/>
	<circle cx="2780.17" cy="1291.87" r="22.03" style="fill:none;stroke:#1A476F;stroke-width:8.64"/>
	<circle cx="2848.11" cy="1251.03" r="26.35" style="fill:#1A476F"/>
	<circle cx="2848.11" cy="1251.03" r="22.03" style="fill:none;stroke:#1A476F;stroke-width:8.64"/>
	<circle cx="2896.62" cy="1632.44" r="26.35" style="fill:#1A476F"/>
	<circle cx="2896.62" cy="1632.44" r="22.03" style="fill:none;stroke:#1A476F;stroke-width:8.64"/>
	<circle cx="2929.29" cy="1647.78" r="26.35" style="fill:#1A476F"/>
	<circle cx="2929.29" cy="1647.78" r="22.03" style="fill:none;stroke:#1A476F;stroke-width:8.64"/>
	<circle cx="2948.47" cy="1502.99" r="26.35" style="fill:#1A476F"/>
	<circle cx="2948.47" cy="1502.99" r="22.03" style="fill:none;stroke:#1A476F;stroke-width:8.64"/>
	<circle cx="3021.97" cy="1937.12" r="26.35" style="fill:#1A476F"/>
	<circle cx="3021.97" cy="1937.12" r="22.03" style="fill:none;stroke:#1A476F;stroke-width:8.64"/>
	<circle cx="3048.09" cy="2111.86" r="26.35" style="fill:#1A476F"/>
	<circle cx="3048.09" cy="2111.86" r="22.03" style="fill:none;stroke:#1A476F;stroke-width:8.64"/>
	<circle cx="3092.02" cy="1507.82" r="26.35" style="fill:#1A476F"/>
	<circle cx="3092.02" cy="1507.82" r="22.03" style="fill:none;stroke:#1A476F;stroke-width:8.64"/>
	<circle cx="3092.76" cy="1116.14" r="26.35" style="fill:#1A476F"/>
	<circle cx="3092.76" cy="1116.14" r="22.03" style="fill:none;stroke:#1A476F;stroke-width:8.64"/>
	<circle cx="3129.27" cy="1935.39" r="26.35" style="fill:#1A476F"/>
	<circle cx="3129.27" cy="1935.39" r="22.03" style="fill:none;stroke:#1A476F;stroke-width:8.64"/>
	<circle cx="3147.09" cy="1539.87" r="26.35" style="fill:#1A476F"/>
	<circle cx="3147.09" cy="1539.87" r="22.03" style="fill:none;stroke:#1A476F;stroke-width:8.64"/>
	<circle cx="3182.85" cy="1537.02" r="26.35" style="fill:#1A476F"/>
	<circle cx="3182.85" cy="1537.02" r="22.03" style="fill:none;stroke:#1A476F;stroke-width:8.64"/>
	<circle cx="3242.25" cy="2182.15" r="26.35" style="fill:#1A476F"/>
	<circle cx="3242.25" cy="2182.15" r="22.03" style="fill:none;stroke:#1A476F;stroke-width:8.64"/>
	<circle cx="3340.51" cy="1630.46" r="26.35" style="fill:#1A476F"/>
	<circle cx="3340.51" cy="1630.46" r="22.03" style="fill:none;stroke:#1A476F;stroke-width:8.64"/>
	<circle cx="3370.95" cy="1659.29" r="26.35" style="fill:#1A476F"/>
	<circle cx="3370.95" cy="1659.29" r="22.03" style="fill:none;stroke:#1A476F;stroke-width:8.64"/>
	<circle cx="3399.04" cy="1272.31" r="26.35" style="fill:#1A476F"/>
	<circle cx="3399.04" cy="1272.31" r="22.03" style="fill:none;stroke:#1A476F;stroke-width:8.64"/>
	<circle cx="3470.94" cy="1245.34" r="26.35" style="fill:#1A476F"/>
	<circle cx="3470.94" cy="1245.34" r="22.03" style="fill:none;stroke:#1A476F;stroke-width:8.64"/>
	<circle cx="3477.13" cy="1434.93" r="26.35" style="fill:#1A476F"/>
	<circle cx="3477.13" cy="1434.93" r="22.03" style="fill:none;stroke:#1A476F;stroke-width:8.64"/>
	<circle cx="3477.62" cy="1573.16" r="26.35" style="fill:#1A476F"/>
	<circle cx="3477.62" cy="1573.16" r="22.03" style="fill:none;stroke:#1A476F;stroke-width:8.64"/>
	<circle cx="3531.33" cy="1539.25" r="26.35" style="fill:#1A476F"/>
	<circle cx="3531.33" cy="1539.25" r="22.03" style="fill:none;stroke:#1A476F;stroke-width:8.64"/>
	<circle cx="3547.05" cy="2217.67" r="26.35" style="fill:#1A476F"/>
	<circle cx="3547.05" cy="2217.67" r="22.03" style="fill:none;stroke:#1A476F;stroke-width:8.64"/>
	<circle cx="3607.07" cy="1043.62" r="26.35" style="fill:#1A476F"/>
	<circle cx="3607.07" cy="1043.62" r="22.03" style="fill:none;stroke:#1A476F;stroke-width:8.64"/>
	<circle cx="3663.25" cy="1601.13" r="26.35" style="fill:#1A476F"/>
	<circle cx="3663.25" cy="1601.13" r="22.03" style="fill:none;stroke:#1A476F;stroke-width:8.64"/>
	<circle cx="3687.13" cy="1348.42" r="26.35" style="fill:#1A476F"/>
	<circle cx="3687.13" cy="1348.42" r="22.03" style="fill:none;stroke:#1A476F;stroke-width:8.64"/>
	<circle cx="3724.75" cy="1626.62" r="26.35" style="fill:#1A476F"/>
	<circle cx="3724.75" cy="1626.62" r="22.03" style="fill:none;stroke:#1A476F;stroke-width:8.64"/>
	<circle cx="3732.80" cy="1032.11" r="26.35" style="fill:#1A476F"/>
	<circle cx="3732.80" cy="1032.11" r="22.03" style="fill:none;stroke:#1A476F;stroke-width:8.64"/>
	<circle cx="365.93" cy="1965.95" r="26.35" style="fill:#90353B"/>
	<circle cx="365.93" cy="1965.95" r="22.03" style="fill:none;stroke:#90353B;stroke-width:8.64"/>
	<circle cx="372.12" cy="1642.09" r="26.35" style="fill:#90353B"/>
	<circle cx="372.12" cy="1642.09" r="22.03" style="fill:none;stroke:#90353B;stroke-width:8.64"/>
	<circle cx="379.29" cy="1840.59" r="26.35" style="fill:#90353B"/>
	<circle cx="379.29" cy="1840.59" r="22.03" style="fill:none;stroke:#90353B;stroke-width:8.64"/>
	<circle cx="406.77" cy="1417.23" r="26.35" style="fill:#90353B"/>
	<circle cx="406.77" cy="1417.23" r="22.03" style="fill:none;stroke:#90353B;stroke-width:8.64"/>
	<circle cx="417.78" cy="1934.77" r="26.35" style="fill:#90353B"/>
	<circle cx="417.78" cy="1934.77" r="22.03" style="fill:none;stroke:#90353B;stroke-width:8.64"/>
	<circle cx="467.53" cy="2093.54" r="26.35" style="fill:#90353B"/>
	<circle cx="467.53" cy="2093.54" r="22.03" style="fill:none;stroke:#90353B;stroke-width:8.64"/>
	<circle cx="473.34" cy="2281.28" r="26.35" style="fill:#90353B"/>
	<circle cx="473.34" cy="2281.28" r="22.03" style="fill:none;stroke:#90353B;stroke-width:8.64"/>
	<circle cx="500.57" cy="1880.56" r="26.35" style="fill:#90353B"/>
	<circle cx="500.57" cy="1880.56" r="22.03" style="fill:none;stroke:#90353B;stroke-width:8.64"/>
	<circle cx="510.35" cy="1822.52" r="26.35" style="fill:#90353B"/>
	<circle cx="510.35" cy="1822.52" r="22.03" style="fill:none;stroke:#90353B;stroke-width:8.64"/>
	<circle cx="610.95" cy="1545.19" r="26.35" style="fill:#90353B"/>
	<circle cx="610.95" cy="1545.19" r="22.03" style="fill:none;stroke:#90353B;stroke-width:8.64"/>
	<circle cx="645.60" cy="1986.74" r="26.35" style="fill:#90353B"/>
	<circle cx="645.60" cy="1986.74" r="22.03" style="fill:none;stroke:#90353B;stroke-width:8.64"/>
	<circle cx="661.94" cy="1357.70" r="26.35" style="fill:#90353B"/>
	<circle cx="661.94" cy="1357.70" r="22.03" style="fill:none;stroke:#90353B;stroke-width:8.64"/>
	<circle cx="662.43" cy="1357.58" r="26.35" style="fill:#90353B"/>
	<circle cx="662.43" cy="1357.58" r="22.03" style="fill:none;stroke:#90353B;stroke-width:8.64"/>
	<circle cx="685.82" cy="1572.42" r="26.35" style="fill:#90353B"/>
	<circle cx="685.82" cy="1572.42" r="22.03" style="fill:none;stroke:#90353B;stroke-width:8.64"/>
	<circle cx="707.23" cy="1905.56" r="26.35" style="fill:#90353B"/>
	<circle cx="707.23" cy="1905.56" r="22.03" style="fill:none;stroke:#90353B;stroke-width:8.64"/>
	<circle cx="718.25" cy="1925.61" r="26.35" style="fill:#90353B"/>
	<circle cx="718.25" cy="1925.61" r="22.03" style="fill:none;stroke:#90353B;stroke-width:8.64"/>
	<circle cx="729.01" cy="1533.68" r="26.35" style="fill:#90353B"/>
	<circle cx="729.01" cy="1533.68" r="22.03" style="fill:none;stroke:#90353B;stroke-width:8.64"/>
	<circle cx="810.69" cy="1706.81" r="26.35" style="fill:#90353B"/>
	<circle cx="810.69" cy="1706.81" r="22.03" style="fill:none;stroke:#90353B;stroke-width:8.64"/>
	<circle cx="849.54" cy="1661.40" r="26.35" style="fill:#90353B"/>
	<circle cx="849.54" cy="1661.40" r="22.03" style="fill:none;stroke:#90353B;stroke-width:8.64"/>
	<circle cx="898.18" cy="1490.99" r="26.35" style="fill:#90353B"/>
	<circle cx="898.18" cy="1490.99" r="22.03" style="fill:none;stroke:#90353B;stroke-width:8.64"/>
	<circle cx="921.57" cy="1405.72" r="26.35" style="fill:#90353B"/>
	<circle cx="921.57" cy="1405.72" r="22.03" style="fill:none;stroke:#90353B;stroke-width:8.64"/>
	<circle cx="961.04" cy="1514.00" r="26.35" style="fill:#90353B"/>
	<circle cx="961.04" cy="1514.00" r="22.03" style="fill:none;stroke:#90353B;stroke-width:8.64"/>
	<circle cx="988.64" cy="1921.65" r="26.35" style="fill:#90353B"/>
	<circle cx="988.64" cy="1921.65" r="22.03" style="fill:none;stroke:#90353B;stroke-width:8.64"/>
	<circle cx="991.49" cy="995.97" r="26.35" style="fill:#90353B"/>
	<circle cx="991.49" cy="995.97" r="22.03" style="fill:none;stroke:#90353B;stroke-width:8.64"/>
	<circle cx="1017.23" cy="1407.45" r="26.35" style="fill:#90353B"/>
	<circle cx="1017.23" cy="1407.45" r="22.03" style="fill:none;stroke:#90353B;stroke-width:8.64"/>
	<circle cx="1053.61" cy="1487.15" r="26.35" style="fill:#90353B"/>
	<circle cx="1053.61" cy="1487.15" r="22.03" style="fill:none;stroke:#90353B;stroke-width:8.64"/>
	<circle cx="1077.37" cy="1765.84" r="26.35" style="fill:#90353B"/>
	<circle cx="1077.37" cy="1765.84" r="22.03" style="fill:none;stroke:#90353B;stroke-width:8.64"/>
	<circle cx="1179.83" cy="484.37" r="26.35" style="fill:#90353B"/>
	<circle cx="1179.83" cy="484.37" r="22.03" style="fill:none;stroke:#90353B;stroke-width:8.64"/>
	<circle cx="1328.70" cy="1590.36" r="26.35" style="fill:#90353B"/>
	<circle cx="1328.70" cy="1590.36" r="22.03" style="fill:none;stroke:#90353B;stroke-width:8.64"/>
	<circle cx="1350.24" cy="974.81" r="26.35" style="fill:#90353B"/>
	<circle cx="1350.24" cy="974.81" r="22.03" style="fill:none;stroke:#90353B;stroke-width:8.64"/>
	<circle cx="1364.10" cy="690.55" r="26.35" style="fill:#90353B"/>
	<circle cx="1364.10" cy="690.55" r="22.03" style="fill:none;stroke:#90353B;stroke-width:8.64"/>
	<circle cx="1428.45" cy="564.57" r="26.35" style="fill:#90353B"/>
	<circle cx="1428.45" cy="564.57" r="22.03" style="fill:none;stroke:#90353B;stroke-width:8.64"/>
	<circle cx="1460.00" cy="605.28" r="26.35" style="fill:#90353B"/>
	<circle cx="1460.00" cy="605.28" r="22.03" style="fill:none;stroke:#90353B;stroke-width:8.64"/>
	<circle cx="1479.68" cy="785.59" r="26.35" style="fill:#90353B"/>
	<circle cx="1479.68" cy="785.59" r="22.03" style="fill:none;stroke:#90353B;stroke-width:8.64"/>
	<circle cx="1540.19" cy="760.34" r="26.35" style="fill:#90353B"/>
	<circle cx="1540.19" cy="760.34" r="22.03" style="fill:none;stroke:#90353B;stroke-width:8.64"/>
	<circle cx="1582.52" cy="678.29" r="26.35" style="fill:#90353B"/>
	<circle cx="1582.52" cy="678.29" r="22.03" style="fill:none;stroke:#90353B;stroke-width:8.64"/>
	<circle cx="1587.09" cy="1644.19" r="26.35" style="fill:#90353B"/>
	<circle cx="1587.09" cy="1644.19" r="22.03" style="fill:none;stroke:#90353B;stroke-width:8.64"/>
	<circle cx="1597.37" cy="1256.10" r="26.35" style="fill:#90353B"/>
	<circle cx="1597.37" cy="1256.10" r="22.03" style="fill:none;stroke:#90353B;stroke-width:8.64"/>
	<circle cx="1597.86" cy="1052.28" r="26.35" style="fill:#90353B"/>
	<circle cx="1597.86" cy="1052.28" r="22.03" style="fill:none;stroke:#90353B;stroke-width:8.64"/>
	<circle cx="1639.07" cy="643.77" r="26.35" style="fill:#90353B"/>
	<circle cx="1639.07" cy="643.77" r="22.03" style="fill:none;stroke:#90353B;stroke-width:8.64"/>
	<circle cx="1640.18" cy="596.99" r="26.35" style="fill:#90353B"/>
	<circle cx="1640.18" cy="596.99" r="22.03" style="fill:none;stroke:#90353B;stroke-width:8.64"/>
	<circle cx="1670.38" cy="1277.39" r="26.35" style="fill:#90353B"/>
	<circle cx="1670.38" cy="1277.39" r="22.03" style="fill:none;stroke:#90353B;stroke-width:8.64"/>
	<circle cx="1725.45" cy="745.74" r="26.35" style="fill:#90353B"/>
	<circle cx="1725.45" cy="745.74" r="22.03" style="fill:none;stroke:#90353B;stroke-width:8.64"/>
	<circle cx="1749.70" cy="1112.67" r="26.35" style="fill:#90353B"/>
	<circle cx="1749.70" cy="1112.67" r="22.03" style="fill:none;stroke:#90353B;stroke-width:8.64"/>
	<circle cx="1778.16" cy="797.10" r="26.35" style="fill:#90353B"/>
	<circle cx="1778.16" cy="797.10" r="22.03" style="fill:none;stroke:#90353B;stroke-width:8.64"/>
	<circle cx="1932.36" cy="831.63" r="26.35" style="fill:#90353B"/>
	<circle cx="1932.36" cy="831.63" r="22.03" style="fill:none;stroke:#90353B;stroke-width:8.64"/>
	<circle cx="1932.36" cy="1190.02" r="26.35" style="fill:#90353B"/>
	<circle cx="1932.36" cy="1190.02" r="22.03" style="fill:none;stroke:#90353B;stroke-width:8.64"/>
	<circle cx="1960.20" cy="730.15" r="26.35" style="fill:#90353B"/>
	<circle cx="1960.20" cy="730.15" r="22.03" style="fill:none;stroke:#90353B;stroke-width:8.64"/>
	<circle cx="1961.81" cy="985.20" r="26.35" style="fill:#90353B"/>
	<circle cx="1961.81" cy="985.20" r="22.03" style="fill:none;stroke:#90353B;stroke-width:8.64"/>
	<circle cx="1995.47" cy="743.76" r="26.35" style="fill:#90353B"/>
	<circle cx="1995.47" cy="743.76" r="22.03" style="fill:none;stroke:#90353B;stroke-width:8.64"/>
	<circle cx="2021.46" cy="164.22" r="26.35" style="fill:#90353B"/>
	<circle cx="2021.46" cy="164.22" r="22.03" style="fill:none;stroke:#90353B;stroke-width:8.64"/>
	<circle cx="2064.27" cy="251.22" r="26.35" style="fill:#90353B"/>
	<circle cx="2064.27" cy="251.22" r="22.03" style="fill:none;stroke:#90353B;stroke-width:8.64"/>
	<line x1="2122.68" y1="1140.52" x2="2136.54" y2="1145.84" stroke-linecap="round" style="stroke:#1A476F;stroke-width:8.64"/>
	<line x1="2136.54" y1="1145.84" x2="2140.13" y2="1147.20" stroke-linecap="round" style="stroke:#1A476F;stroke-width:8.64"/>
	<line x1="2140.13" y1="1147.20" x2="2182.70" y2="1163.53" stroke-linecap="round" style="stroke:#1A476F;stroke-width:8.64"/>
	<line x1="2182.70" y1="1163.53" x2="2220.20" y2="1177.89" stroke-linecap="round" style="stroke:#1A476F;stroke-width:8.64"/>
	<line x1="2220.20" y1="1177.89" x2="2221.93" y2="1178.51" stroke-linecap="round" style="stroke:#1A476F;stroke-width:8.64"/>
	<line x1="2221.93" y1="1178.51" x2="2236.53" y2="1184.08" stroke-linecap="round" style="stroke:#1A476F;stroke-width:8.64"/>
	<line x1="2236.53" y1="1184.08" x2="2243.71" y2="1186.92" stroke-linecap="round" style="stroke:#1A476F;stroke-width:8.64"/>
	<line x1="2243.71" y1="1186.92" x2="2268.96" y2="1196.58" stroke-linecap="round" style="stroke:#1A476F;stroke-width:8.64"/>
	<line x1="2268.96" y1="1196.58" x2="2280.09" y2="1200.91" stroke-linecap="round" style="stroke:#1A476F;stroke-width:8.64"/>
	<line x1="2280.09" y1="1200.91" x2="2293.34" y2="1205.86" stroke-linecap="round" style="stroke:#1A476F;stroke-width:8.64"/>
	<line x1="2293.34" y1="1205.86" x2="2381.82" y2="1239.77" stroke-linecap="round" style="stroke:#1A476F;stroke-width:8.64"/>
	<line x1="2381.82" y1="1239.77" x2="2430.82" y2="1258.58" stroke-linecap="round" style="stroke:#1A476F;stroke-width:8.64"/>
	<line x1="2430.82" y1="1258.58" x2="2462.38" y2="1270.70" stroke-linecap="round" style="stroke:#1A476F;stroke-width:8.64"/>
	<line x1="2462.38" y1="1270.70" x2="2497.15" y2="1284.07" stroke-linecap="round" style="stroke:#1A476F;stroke-width:8.64"/>
	<line x1="2497.15" y1="1284.07" x2="2573.01" y2="1313.15" stroke-linecap="round" style="stroke:#1A476F;stroke-width:8.64"/>
	<line x1="2573.01" y1="1313.15" x2="2618.80" y2="1330.60" stroke-linecap="round" style="stroke:#1A476F;stroke-width:8.64"/>
	<line x1="2618.80" y1="1330.60" x2="2624.24" y2="1332.71" stroke-linecap="round" style="stroke:#1A476F;stroke-width:8.64"/>
	<line x1="2624.24" y1="1332.71" x2="2689.34" y2="1357.70" stroke-linecap="round" style="stroke:#1A476F;stroke-width:8.64"/>
	<line x1="2689.34" y1="1357.70" x2="2697.50" y2="1360.80" stroke-linecap="round" style="stroke:#1A476F;stroke-width:8.64"/>
	<line x1="2697.50" y1="1360.80" x2="2723.49" y2="1370.82" stroke-linecap="round" style="stroke:#1A476F;stroke-width:8.64"/>
	<line x1="2723.49" y1="1370.82" x2="2735.86" y2="1375.52" stroke-linecap="round" style="stroke:#1A476F;stroke-width:8.64"/>
	<line x1="2735.86" y1="1375.52" x2="2780.17" y2="1392.48" stroke-linecap="round" style="stroke:#1A476F;stroke-width:8.64"/>
	<line x1="2780.17" y1="1392.48" x2="2848.11" y2="1418.59" stroke-linecap="round" style="stroke:#1A476F;stroke-width:8.64"/>
	<line x1="2848.11" y1="1418.59" x2="2896.62" y2="1437.15" stroke-linecap="round" style="stroke:#1A476F;stroke-width:8.64"/>
	<line x1="2896.62" y1="1437.15" x2="2929.29" y2="1449.65" stroke-linecap="round" style="stroke:#1A476F;stroke-width:8.64"/>
	<line x1="2929.29" y1="1449.65" x2="2948.47" y2="1457.08" stroke-linecap="round" style="stroke:#1A476F;stroke-width:8.64"/>
	<line x1="2948.47" y1="1457.08" x2="3021.97" y2="1485.17" stroke-linecap="round" style="stroke:#1A476F;stroke-width:8.64"/>
	<line x1="3021.97" y1="1485.17" x2="3048.09" y2="1495.19" stroke-linecap="round" style="stroke:#1A476F;stroke-width:8.64"/>
	<line x1="3048.09" y1="1495.19" x2="3092.02" y2="1512.02" stroke-linecap="round" style="stroke:#1A476F;stroke-width:8.64"/>
	<line x1="3092.02" y1="1512.02" x2="3092.76" y2="1512.27" stroke-linecap="round" style="stroke:#1A476F;stroke-width:8.64"/>
	<line x1="3092.76" y1="1512.27" x2="3129.27" y2="1526.26" stroke-linecap="round" style="stroke:#1A476F;stroke-width:8.64"/>
	<line x1="3129.27" y1="1526.26" x2="3147.09" y2="1533.19" stroke-linecap="round" style="stroke:#1A476F;stroke-width:8.64"/>
	<line x1="3147.09" y1="1533.19" x2="3182.85" y2="1546.80" stroke-linecap="round" style="stroke:#1A476F;stroke-width:8.64"/>
	<line x1="3182.85" y1="1546.80" x2="3242.25" y2="1569.57" stroke-linecap="round" style="stroke:#1A476F;stroke-width:8.64"/>
	<line x1="3242.25" y1="1569.57" x2="3340.51" y2="1607.19" stroke-linecap="round" style="stroke:#1A476F;stroke-width:8.64"/>
	<line x1="3340.51" y1="1607.19" x2="3370.95" y2="1618.95" stroke-linecap="round" style="stroke:#1A476F;stroke-width:8.64"/>
	<line x1="3370.95" y1="1618.95" x2="3399.04" y2="1629.71" stroke-linecap="round" style="stroke:#1A476F;stroke-width:8.64"/>
	<line x1="3399.04" y1="1629.71" x2="3470.94" y2="1657.31" stroke-linecap="round" style="stroke:#1A476F;stroke-width:8.64"/>
	<line x1="3470.94" y1="1657.31" x2="3477.13" y2="1659.66" stroke-linecap="round" style="stroke:#1A476F;stroke-width:8.64"/>
	<line x1="3477.13" y1="1659.66" x2="3477.62" y2="1659.79" stroke-linecap="round" style="stroke:#1A476F;stroke-width:8.64"/>
	<line x1="3477.62" y1="1659.79" x2="3531.33" y2="1680.33" stroke-linecap="round" style="stroke:#1A476F;stroke-width:8.64"/>
	<line x1="3531.33" y1="1680.33" x2="3547.05" y2="1686.39" stroke-linecap="round" style="stroke:#1A476F;stroke-width:8.64"/>
	<line x1="3547.05" y1="1686.39" x2="3607.07" y2="1709.41" stroke-linecap="round" style="stroke:#1A476F;stroke-width:8.64"/>
	<line x1="3607.07" y1="1709.41" x2="3663.25" y2="1730.95" stroke-linecap="round" style="stroke:#1A476F;stroke-width:8.64"/>
	<line x1="3663.25" y1="1730.95" x2="3687.13" y2="1740.10" stroke-linecap="round" style="stroke:#1A476F;stroke-width:8.64"/>
	<line x1="3687.13" y1="1740.10" x2="3724.75" y2="1754.58" stroke-linecap="round" style="stroke:#1A476F;stroke-width:8.64"/>
	<line x1="3724.75" y1="1754.58" x2="3732.80" y2="1757.55" stroke-linecap="round" style="stroke:#1A476F;stroke-width:8.64"/>
	<line x1="365.93" y1="1685.16" x2="372.12" y2="1683.18" stroke-linecap="round" style="stroke:#90353B;stroke-width:8.64"/>
	<line x1="372.12" y1="1683.18" x2="379.29" y2="1680.83" stroke-linecap="round" style="stroke:#90353B;stroke-width:8.64"/>
	<line x1="379.29" y1="1680.83" x2="406.77" y2="1671.79" stroke-linecap="round" style="stroke:#90353B;stroke-width:8.64"/>
	<line x1="406.77" y1="1671.79" x2="417.78" y2="1668.08" stroke-linecap="round" style="stroke:#90353B;stroke-width:8.64"/>
	<line x1="417.78" y1="1668.08" x2="467.53" y2="1651.74" stroke-linecap="round" style="stroke:#90353B;stroke-width:8.64"/>
	<line x1="467.53" y1="1651.74" x2="473.34" y2="1649.76" stroke-linecap="round" style="stroke:#90353B;stroke-width:8.64"/>
	<line x1="473.34" y1="1649.76" x2="500.57" y2="1640.85" stroke-linecap="round" style="stroke:#90353B;stroke-width:8.64"/>
	<line x1="500.57" y1="1640.85" x2="510.35" y2="1637.63" stroke-linecap="round" style="stroke:#90353B;stroke-width:8.64"/>
	<line x1="510.35" y1="1637.63" x2="610.95" y2="1604.47" stroke-linecap="round" style="stroke:#90353B;stroke-width:8.64"/>
	<line x1="610.95" y1="1604.47" x2="645.60" y2="1593.08" stroke-linecap="round" style="stroke:#90353B;stroke-width:8.64"/>
	<line x1="645.60" y1="1593.08" x2="661.94" y2="1587.64" stroke-linecap="round" style="stroke:#90353B;stroke-width:8.64"/>
	<line x1="661.94" y1="1587.64" x2="662.43" y2="1587.51" stroke-linecap="round" style="stroke:#90353B;stroke-width:8.64"/>
	<line x1="662.43" y1="1587.51" x2="685.82" y2="1579.84" stroke-linecap="round" style="stroke:#90353B;stroke-width:8.64"/>
	<line x1="685.82" y1="1579.84" x2="707.23" y2="1572.79" stroke-linecap="round" style="stroke:#90353B;stroke-width:8.64"/>
	<line x1="707.23" y1="1572.79" x2="718.25" y2="1569.08" stroke-linecap="round" style="stroke:#90353B;stroke-width:8.64"/>
	<line x1="718.25" y1="1569.08" x2="729.01" y2="1565.61" stroke-linecap="round" style="stroke:#90353B;stroke-width:8.64"/>
	<line x1="729.01" y1="1565.61" x2="810.69" y2="1538.63" stroke-linecap="round" style="stroke:#90353B;stroke-width:8.64"/>
	<line x1="810.69" y1="1538.63" x2="849.54" y2="1525.89" stroke-linecap="round" style="stroke:#90353B;stroke-width:8.64"/>
	<line x1="849.54" y1="1525.89" x2="898.18" y2="1509.80" stroke-linecap="round" style="stroke:#90353B;stroke-width:8.64"/>
	<line x1="898.18" y1="1509.80" x2="921.57" y2="1502.12" stroke-linecap="round" style="stroke:#90353B;stroke-width:8.64"/>
	<line x1="921.57" y1="1502.12" x2="961.04" y2="1489.13" stroke-linecap="round" style="stroke:#90353B;stroke-width:8.64"/>
	<line x1="961.04" y1="1489.13" x2="988.64" y2="1480.10" stroke-linecap="round" style="stroke:#90353B;stroke-width:8.64"/>
	<line x1="988.64" y1="1480.10" x2="991.49" y2="1479.11" stroke-linecap="round" style="stroke:#90353B;stroke-width:8.64"/>
	<line x1="991.49" y1="1479.11" x2="1017.23" y2="1470.57" stroke-linecap="round" style="stroke:#90353B;stroke-width:8.64"/>
	<line x1="1017.23" y1="1470.57" x2="1053.61" y2="1458.69" stroke-linecap="round" style="stroke:#90353B;stroke-width:8.64"/>
	<line x1="1053.61" y1="1458.69" x2="1077.37" y2="1450.77" stroke-linecap="round" style="stroke:#90353B;stroke-width:8.64"/>
	<line x1="1077.37" y1="1450.77" x2="1179.83" y2="1416.98" stroke-linecap="round" style="stroke:#90353B;stroke-width:8.64"/>
	<line x1="1179.83" y1="1416.98" x2="1328.70" y2="1367.98" stroke-linecap="round" style="stroke:#90353B;stroke-width:8.64"/>
	<line x1="1328.70" y1="1367.98" x2="1350.24" y2="1360.92" stroke-linecap="round" style="stroke:#90353B;stroke-width:8.64"/>
	<line x1="1350.24" y1="1360.92" x2="1364.10" y2="1356.34" stroke-linecap="round" style="stroke:#90353B;stroke-width:8.64"/>
	<line x1="1364.10" y1="1356.34" x2="1428.45" y2="1335.18" stroke-linecap="round" style="stroke:#90353B;stroke-width:8.64"/>
	<line x1="1428.45" y1="1335.18" x2="1460.00" y2="1324.79" stroke-linecap="round" style="stroke:#90353B;stroke-width:8.64"/>
	<line x1="1460.00" y1="1324.79" x2="1479.68" y2="1318.23" stroke-linecap="round" style="stroke:#90353B;stroke-width:8.64"/>
	<line x1="1479.68" y1="1318.23" x2="1540.19" y2="1298.30" stroke-linecap="round" style="stroke:#90353B;stroke-width:8.64"/>
	<line x1="1540.19" y1="1298.30" x2="1582.52" y2="1284.44" stroke-linecap="round" style="stroke:#90353B;stroke-width:8.64"/>
	<line x1="1582.52" y1="1284.44" x2="1587.09" y2="1282.83" stroke-linecap="round" style="stroke:#90353B;stroke-width:8.64"/>
	<line x1="1587.09" y1="1282.83" x2="1597.37" y2="1279.49" stroke-linecap="round" style="stroke:#90353B;stroke-width:8.64"/>
	<line x1="1597.37" y1="1279.49" x2="1597.86" y2="1279.37" stroke-linecap="round" style="stroke:#90353B;stroke-width:8.64"/>
	<line x1="1597.86" y1="1279.37" x2="1639.07" y2="1265.75" stroke-linecap="round" style="stroke:#90353B;stroke-width:8.64"/>
	<line x1="1639.07" y1="1265.75" x2="1640.18" y2="1265.38" stroke-linecap="round" style="stroke:#90353B;stroke-width:8.64"/>
	<line x1="1640.18" y1="1265.38" x2="1670.38" y2="1255.48" stroke-linecap="round" style="stroke:#90353B;stroke-width:8.64"/>
	<line x1="1670.38" y1="1255.48" x2="1725.45" y2="1237.29" stroke-linecap="round" style="stroke:#90353B;stroke-width:8.64"/>
	<line x1="1725.45" y1="1237.29" x2="1749.70" y2="1229.37" stroke-linecap="round" style="stroke:#90353B;stroke-width:8.64"/>
	<line x1="1749.70" y1="1229.37" x2="1778.16" y2="1219.97" stroke-linecap="round" style="stroke:#90353B;stroke-width:8.64"/>
	<line x1="1778.16" y1="1219.97" x2="1932.36" y2="1169.10" stroke-linecap="round" style="stroke:#90353B;stroke-width:8.64"/>
	<line x1="1932.36" y1="1169.10" x2="1932.36" y2="1169.10" stroke-linecap="round" style="stroke:#90353B;stroke-width:8.64"/>
	<line x1="1932.36" y1="1169.10" x2="1960.20" y2="1159.94" stroke-linecap="round" style="stroke:#90353B;stroke-width:8.64"/>
	<line x1="1960.20" y1="1159.94" x2="1961.81" y2="1159.45" stroke-linecap="round" style="stroke:#90353B;stroke-width:8.64"/>
	<line x1="1961.81" y1="1159.45" x2="1995.47" y2="1148.31" stroke-linecap="round" style="stroke:#90353B;stroke-width:8.64"/>
	<line x1="1995.47" y1="1148.31" x2="2021.46" y2="1139.77" stroke-linecap="round" style="stroke:#90353B;stroke-width:8.64"/>
	<line x1="2021.46" y1="1139.77" x2="2064.27" y2="1125.67" stroke-linecap="round" style="stroke:#90353B;stroke-width:8.64"/>
	<line x1="290.81" y1="2489.19" x2="290.81" y2="100.86" style="stroke:#000000;stroke-width:5.76"/>
	<line x1="290.81" y1="2425.82" x2="250.84" y2="2425.82" style="stroke:#000000;stroke-width:5.76"/>
	<text x="200.73" y="2425.82" style="font-family:'Helvetica';font-size:99.99px;fill:#000000" transform="rotate(-90 200.73,2425.82)" text-anchor="middle">-2</text>
	<line x1="290.81" y1="1886.13" x2="250.84" y2="1886.13" style="stroke:#000000;stroke-width:5.76"/>
	<text x="200.73" y="1886.13" style="font-family:'Helvetica';font-size:99.99px;fill:#000000" transform="rotate(-90 200.73,1886.13)" text-anchor="middle">0</text>
	<line x1="290.81" y1="1346.32" x2="250.84" y2="1346.32" style="stroke:#000000;stroke-width:5.76"/>
	<text x="200.73" y="1346.32" style="font-family:'Helvetica';font-size:99.99px;fill:#000000" transform="rotate(-90 200.73,1346.32)" text-anchor="middle">2</text>
	<line x1="290.81" y1="806.63" x2="250.84" y2="806.63" style="stroke:#000000;stroke-width:5.76"/>
	<text x="200.73" y="806.63" style="font-family:'Helvetica';font-size:99.99px;fill:#000000" transform="rotate(-90 200.73,806.63)" text-anchor="middle">4</text>
	<line x1="290.81" y1="266.94" x2="250.84" y2="266.94" style="stroke:#000000;stroke-width:5.76"/>
	<text x="200.73" y="266.94" style="font-family:'Helvetica';font-size:99.99px;fill:#000000" transform="rotate(-90 200.73,266.94)" text-anchor="middle">6</text>
	<line x1="290.81" y1="2489.19" x2="3859.02" y2="2489.19" style="stroke:#000000;stroke-width:5.76"/>
	<line x1="354.17" y1="2489.19" x2="354.17" y2="2529.16" style="stroke:#000000;stroke-width:5.76"/>
	<text x="354.17" y="2619.14" style="font-family:'Helvetica';font-size:99.99px;fill:#000000" text-anchor="middle">0</text>
	<line x1="1042.47" y1="2489.19" x2="1042.47" y2="2529.16" style="stroke:#000000;stroke-width:5.76"/>
	<text x="1042.47" y="2619.14" style="font-family:'Helvetica';font-size:99.99px;fill:#000000" text-anchor="middle">2</text>
	<line x1="1730.77" y1="2489.19" x2="1730.77" y2="2529.16" style="stroke:#000000;stroke-width:5.76"/>
	<text x="1730.77" y="2619.14" style="font-family:'Helvetica';font-size:99.99px;fill:#000000" text-anchor="middle">4</text>
	<line x1="2419.07" y1="2489.19" x2="2419.07" y2="2529.16" style="stroke:#000000;stroke-width:5.76"/>
	<text x="2419.07" y="2619.14" style="font-family:'Helvetica';font-size:99.99px;fill:#000000" text-anchor="middle">6</text>
	<line x1="3107.36" y1="2489.19" x2="3107.36" y2="2529.16" style="stroke:#000000;stroke-width:5.76"/>
	<text x="3107.36" y="2619.14" style="font-family:'Helvetica';font-size:99.99px;fill:#000000" text-anchor="middle">8</text>
	<line x1="3795.66" y1="2489.19" x2="3795.66" y2="2529.16" style="stroke:#000000;stroke-width:5.76"/>
	<text x="3795.66" y="2619.14" style="font-family:'Helvetica';font-size:99.99px;fill:#000000" text-anchor="middle">10</text>
	<text x="2074.92" y="2729.16" style="font-family:'Helvetica';font-size:99.99px;fill:#000000" text-anchor="middle">x</text>
</svg>
