<?xml version="1.0" encoding="UTF-8" standalone="no"?>
<!-- This is a Stata 15.1 generated SVG file (http://www.stata.com) -->

<svg version="1.1" width="5.50in" height="4.00in" viewBox="0 0 3960 2880" xmlns="http://www.w3.org/2000/svg" xmlns:xlink="http://www.w3.org/1999/xlink">
	<desc>Stata Graph - Graph</desc>
	<rect x="0" y="0" width="3960" height="2880" style="fill:#EAF2F3;stroke:none"/>
	<rect x="0.00" y="0.00" width="3959.88" height="2880.00" style="fill:#EAF2F3"/>
	<rect x="2.88" y="2.88" width="3954.12" height="2874.24" style="fill:none;stroke:#EAF2F3;stroke-width:5.76"/>
	<rect x="390.80" y="100.86" width="3468.22" height="2388.33" style="fill:#FFFFFF"/>
	<rect x="393.68" y="103.74" width="3462.46" height="2382.57" style="fill:none;stroke:#FFFFFF;stroke-width:5.76"/>
	<line x1="390.80" y1="2425.82" x2="3859.02" y2="2425.82" style="stroke:#EAF2F3;stroke-width:8.64"/>
	<line x1="390.80" y1="1886.13" x2="3859.02" y2="1886.13" style="stroke:#EAF2F3;stroke-width:8.64"/>
	<line x1="390.80" y1="1346.32" x2="3859.02" y2="1346.32" style="stroke:#EAF2F3;stroke-width:8.64"/>
	<line x1="390.80" y1="806.63" x2="3859.02" y2="806.63" style="stroke:#EAF2F3;stroke-width:8.64"/>
	<line x1="390.80" y1="266.94" x2="3859.02" y2="266.94" style="stroke:#EAF2F3;stroke-width:8.64"/>
	<circle cx="2171.32" cy="2006.55" r="26.35" style="fill:#1A476F"/>
	<circle cx="2171.32" cy="2006.55" r="22.03" style="fill:none;stroke:#1A476F;stroke-width:8.64"/>
	<circle cx="2184.81" cy="1796.04" r="26.35" style="fill:#1A476F"/>
	<circle cx="2184.81" cy="1796.04" r="22.03" style="fill:none;stroke:#1A476F;stroke-width:8.64"/>
	<circle cx="2188.27" cy="1420.32" r="26.35" style="fill:#1A476F"/>
	<circle cx="2188.27" cy="1420.32" r="22.03" style="fill:none;stroke:#1A476F;stroke-width:8.64"/>
	<circle cx="2229.48" cy="1810.52" r="26.35" style="fill:#1A476F"/>
	<circle cx="2229.48" cy="1810.52" r="22.03" style="fill:none;stroke:#1A476F;stroke-width:8.64"/>
	<circle cx="2265.99" cy="1230.73" r="26.35" style="fill:#1A476F"/>
	<circle cx="2265.99" cy="1230.73" r="22.03" style="fill:none;stroke:#1A476F;stroke-width:8.64"/>
	<circle cx="2267.59" cy="2118.54" r="26.35" style="fill:#1A476F"/>
	<circle cx="2267.59" cy="2118.54" r="22.03" style="fill:none;stroke:#1A476F;stroke-width:8.64"/>
	<circle cx="2281.83" cy="1303.75" r="26.35" style="fill:#1A476F"/>
	<circle cx="2281.83" cy="1303.75" r="22.03" style="fill:none;stroke:#1A476F;stroke-width:8.64"/>
	<circle cx="2288.88" cy="1552.99" r="26.35" style="fill:#1A476F"/>
	<circle cx="2288.88" cy="1552.99" r="22.03" style="fill:none;stroke:#1A476F;stroke-width:8.64"/>
	<circle cx="2313.38" cy="1562.52" r="26.35" style="fill:#1A476F"/>
	<circle cx="2313.38" cy="1562.52" r="22.03" style="fill:none;stroke:#1A476F;stroke-width:8.64"/>
	<circle cx="2324.15" cy="1226.40" r="26.35" style="fill:#1A476F"/>
	<circle cx="2324.15" cy="1226.40" r="22.03" style="fill:none;stroke:#1A476F;stroke-width:8.64"/>
	<circle cx="2337.02" cy="1547.05" r="26.35" style="fill:#1A476F"/>
	<circle cx="2337.02" cy="1547.05" r="22.03" style="fill:none;stroke:#1A476F;stroke-width:8.64"/>
	<circle cx="2422.90" cy="1745.67" r="26.35" style="fill:#1A476F"/>
	<circle cx="2422.90" cy="1745.67" r="22.03" style="fill:none;stroke:#1A476F;stroke-width:8.64"/>
	<circle cx="2470.55" cy="1547.42" r="26.35" style="fill:#1A476F"/>
	<circle cx="2470.55" cy="1547.42" r="22.03" style="fill:none;stroke:#1A476F;stroke-width:8.64"/>
	<circle cx="2501.11" cy="1466.24" r="26.35" style="fill:#1A476F"/>
	<circle cx="2501.11" cy="1466.24" r="22.03" style="fill:none;stroke:#1A476F;stroke-width:8.64"/>
	<circle cx="2534.89" cy="2101.59" r="26.35" style="fill:#1A476F"/>
	<circle cx="2534.89" cy="2101.59" r="22.03" style="fill:none;stroke:#1A476F;stroke-width:8.64"/>
	<circle cx="2608.53" cy="1959.89" r="26.35" style="fill:#1A476F"/>
	<circle cx="2608.53" cy="1959.89" r="22.03" style="fill:none;stroke:#1A476F;stroke-width:8.64"/>
	<circle cx="2652.95" cy="1568.95" r="26.35" style="fill:#1A476F"/>
	<circle cx="2652.95" cy="1568.95" r="22.03" style="fill:none;stroke:#1A476F;stroke-width:8.64"/>
	<circle cx="2658.27" cy="1969.67" r="26.35" style="fill:#1A476F"/>
	<circle cx="2658.27" cy="1969.67" r="22.03" style="fill:none;stroke:#1A476F;stroke-width:8.64"/>
	<circle cx="2721.51" cy="1820.05" r="26.35" style="fill:#1A476F"/>
	<circle cx="2721.51" cy="1820.05" r="22.03" style="fill:none;stroke:#1A476F;stroke-width:8.64"/>
	<circle cx="2729.43" cy="1295.21" r="26.35" style="fill:#1A476F"/>
	<circle cx="2729.43" cy="1295.21" r="22.03" style="fill:none;stroke:#1A476F;stroke-width:8.64"/>
	<circle cx="2754.68" cy="1470.44" r="26.35" style="fill:#1A476F"/>
	<circle cx="2754.68" cy="1470.44" r="22.03" style="fill:none;stroke:#1A476F;stroke-width:8.64"/>
	<circle cx="2766.68" cy="1118.12" r="26.35" style="fill:#1A476F"/>
	<circle cx="2766.68" cy="1118.12" r="22.03" style="fill:none;stroke:#1A476F;stroke-width:8.64"/>
	<circle cx="2809.62" cy="1291.87" r="26.35" style="fill:#1A476F"/>
	<circle cx="2809.62" cy="1291.87" r="22.03" style="fill:none;stroke:#1A476F;stroke-width:8.64"/>
	<circle cx="2875.70" cy="1251.03" r="26.35" style="fill:#1A476F"/>
	<circle cx="2875.70" cy="1251.03" r="22.03" style="fill:none;stroke:#1A476F;stroke-width:8.64"/>
	<circle cx="2922.73" cy="1632.44" r="26.35" style="fill:#1A476F"/>
	<circle cx="2922.73" cy="1632.44" r="22.03" style="fill:none;stroke:#1A476F;stroke-width:8.64"/>
	<circle cx="2954.41" cy="1647.78" r="26.35" style="fill:#1A476F"/>
	<circle cx="2954.41" cy="1647.78" r="22.03" style="fill:none;stroke:#1A476F;stroke-width:8.64"/>
	<circle cx="2973.09" cy="1502.99" r="26.35" style="fill:#1A476F"/>
	<circle cx="2973.09" cy="1502.99" r="22.03" style="fill:none;stroke:#1A476F;stroke-width:8.64"/>
	<circle cx="3044.50" cy="1937.12" r="26.35" style="fill:#1A476F"/>
	<circle cx="3044.50" cy="1937.12" r="22.03" style="fill:none;stroke:#1A476F;stroke-width:8.64"/>
	<circle cx="3069.87" cy="2111.86" r="26.35" style="fill:#1A476F"/>
	<circle cx="3069.87" cy="2111.86" r="22.03" style="fill:none;stroke:#1A476F;stroke-width:8.64"/>
	<circle cx="3112.44" cy="1507.82" r="26.35" style="fill:#1A476F"/>
	<circle cx="3112.44" cy="1507.82" r="22.03" style="fill:none;stroke:#1A476F;stroke-width:8.64"/>
	<circle cx="3113.18" cy="1116.14" r="26.35" style="fill:#1A476F"/>
	<circle cx="3113.18" cy="1116.14" r="22.03" style="fill:none;stroke:#1A476F;stroke-width:8.64"/>
	<circle cx="3148.57" cy="1935.39" r="26.35" style="fill:#1A476F"/>
	<circle cx="3148.57" cy="1935.39" r="22.03" style="fill:none;stroke:#1A476F;stroke-width:8.64"/>
	<circle cx="3166.02" cy="1539.87" r="26.35" style="fill:#1A476F"/>
	<circle cx="3166.02" cy="1539.87" r="22.03" style="fill:none;stroke:#1A476F;stroke-width:8.64"/>
	<circle cx="3200.67" cy="1537.02" r="26.35" style="fill:#1A476F"/>
	<circle cx="3200.67" cy="1537.02" r="22.03" style="fill:none;stroke:#1A476F;stroke-width:8.64"/>
	<circle cx="3258.34" cy="2182.15" r="26.35" style="fill:#1A476F"/>
	<circle cx="3258.34" cy="2182.15" r="22.03" style="fill:none;stroke:#1A476F;stroke-width:8.64"/>
	<circle cx="3353.75" cy="1630.46" r="26.35" style="fill:#1A476F"/>
	<circle cx="3353.75" cy="1630.46" r="22.03" style="fill:none;stroke:#1A476F;stroke-width:8.64"/>
	<circle cx="3383.20" cy="1659.29" r="26.35" style="fill:#1A476F"/>
	<circle cx="3383.20" cy="1659.29" r="22.03" style="fill:none;stroke:#1A476F;stroke-width:8.64"/>
	<circle cx="3410.55" cy="1272.31" r="26.35" style="fill:#1A476F"/>
	<circle cx="3410.55" cy="1272.31" r="22.03" style="fill:none;stroke:#1A476F;stroke-width:8.64"/>
	<circle cx="3480.34" cy="1245.34" r="26.35" style="fill:#1A476F"/>
	<circle cx="3480.34" cy="1245.34" r="22.03" style="fill:none;stroke:#1A476F;stroke-width:8.64"/>
	<circle cx="3486.41" cy="1434.93" r="26.35" style="fill:#1A476F"/>
	<circle cx="3486.41" cy="1434.93" r="22.03" style="fill:none;stroke:#1A476F;stroke-width:8.64"/>
	<circle cx="3486.78" cy="1573.16" r="26.35" style="fill:#1A476F"/>
	<circle cx="3486.78" cy="1573.16" r="22.03" style="fill:none;stroke:#1A476F;stroke-width:8.64"/>
	<circle cx="3539.00" cy="1539.25" r="26.35" style="fill:#1A476F"/>
	<circle cx="3539.00" cy="1539.25" r="22.03" style="fill:none;stroke:#1A476F;stroke-width:8.64"/>
	<circle cx="3554.35" cy="2217.67" r="26.35" style="fill:#1A476F"/>
	<circle cx="3554.35" cy="2217.67" r="22.03" style="fill:none;stroke:#1A476F;stroke-width:8.64"/>
	<circle cx="3612.63" cy="1043.62" r="26.35" style="fill:#1A476F"/>
	<circle cx="3612.63" cy="1043.62" r="22.03" style="fill:none;stroke:#1A476F;stroke-width:8.64"/>
	<circle cx="3667.08" cy="1601.13" r="26.35" style="fill:#1A476F"/>
	<circle cx="3667.08" cy="1601.13" r="22.03" style="fill:none;stroke:#1A476F;stroke-width:8.64"/>
	<circle cx="3690.22" cy="1348.42" r="26.35" style="fill:#1A476F"/>
	<circle cx="3690.22" cy="1348.42" r="22.03" style="fill:none;stroke:#1A476F;stroke-width:8.64"/>
	<circle cx="3726.86" cy="1626.62" r="26.35" style="fill:#1A476F"/>
	<circle cx="3726.86" cy="1626.62" r="22.03" style="fill:none;stroke:#1A476F;stroke-width:8.64"/>
	<circle cx="3734.53" cy="1032.11" r="26.35" style="fill:#1A476F"/>
	<circle cx="3734.53" cy="1032.11" r="22.03" style="fill:none;stroke:#1A476F;stroke-width:8.64"/>
	<circle cx="465.55" cy="1965.95" r="26.35" style="fill:#90353B"/>
	<circle cx="465.55" cy="1965.95" r="22.03" style="fill:none;stroke:#90353B;stroke-width:8.64"/>
	<circle cx="471.49" cy="1642.09" r="26.35" style="fill:#90353B"/>
	<circle cx="471.49" cy="1642.09" r="22.03" style="fill:none;stroke:#90353B;stroke-width:8.64"/>
	<circle cx="478.54" cy="1840.59" r="26.35" style="fill:#90353B"/>
	<circle cx="478.54" cy="1840.59" r="22.03" style="fill:none;stroke:#90353B;stroke-width:8.64"/>
	<circle cx="505.15" cy="1417.23" r="26.35" style="fill:#90353B"/>
	<circle cx="505.15" cy="1417.23" r="22.03" style="fill:none;stroke:#90353B;stroke-width:8.64"/>
	<circle cx="515.91" cy="1934.77" r="26.35" style="fill:#90353B"/>
	<circle cx="515.91" cy="1934.77" r="22.03" style="fill:none;stroke:#90353B;stroke-width:8.64"/>
	<circle cx="564.18" cy="2093.54" r="26.35" style="fill:#90353B"/>
	<circle cx="564.18" cy="2093.54" r="22.03" style="fill:none;stroke:#90353B;stroke-width:8.64"/>
	<circle cx="569.87" cy="2281.28" r="26.35" style="fill:#90353B"/>
	<circle cx="569.87" cy="2281.28" r="22.03" style="fill:none;stroke:#90353B;stroke-width:8.64"/>
	<circle cx="596.35" cy="1880.56" r="26.35" style="fill:#90353B"/>
	<circle cx="596.35" cy="1880.56" r="22.03" style="fill:none;stroke:#90353B;stroke-width:8.64"/>
	<circle cx="605.88" cy="1822.52" r="26.35" style="fill:#90353B"/>
	<circle cx="605.88" cy="1822.52" r="22.03" style="fill:none;stroke:#90353B;stroke-width:8.64"/>
	<circle cx="703.52" cy="1545.19" r="26.35" style="fill:#90353B"/>
	<circle cx="703.52" cy="1545.19" r="22.03" style="fill:none;stroke:#90353B;stroke-width:8.64"/>
	<circle cx="737.18" cy="1986.74" r="26.35" style="fill:#90353B"/>
	<circle cx="737.18" cy="1986.74" r="22.03" style="fill:none;stroke:#90353B;stroke-width:8.64"/>
	<circle cx="753.02" cy="1357.70" r="26.35" style="fill:#90353B"/>
	<circle cx="753.02" cy="1357.70" r="22.03" style="fill:none;stroke:#90353B;stroke-width:8.64"/>
	<circle cx="753.51" cy="1357.58" r="26.35" style="fill:#90353B"/>
	<circle cx="753.51" cy="1357.58" r="22.03" style="fill:none;stroke:#90353B;stroke-width:8.64"/>
	<circle cx="776.16" cy="1572.42" r="26.35" style="fill:#90353B"/>
	<circle cx="776.16" cy="1572.42" r="22.03" style="fill:none;stroke:#90353B;stroke-width:8.64"/>
	<circle cx="796.95" cy="1905.56" r="26.35" style="fill:#90353B"/>
	<circle cx="796.95" cy="1905.56" r="22.03" style="fill:none;stroke:#90353B;stroke-width:8.64"/>
	<circle cx="807.72" cy="1925.61" r="26.35" style="fill:#90353B"/>
	<circle cx="807.72" cy="1925.61" r="22.03" style="fill:none;stroke:#90353B;stroke-width:8.64"/>
	<circle cx="818.11" cy="1533.68" r="26.35" style="fill:#90353B"/>
	<circle cx="818.11" cy="1533.68" r="22.03" style="fill:none;stroke:#90353B;stroke-width:8.64"/>
	<circle cx="897.31" cy="1706.81" r="26.35" style="fill:#90353B"/>
	<circle cx="897.31" cy="1706.81" r="22.03" style="fill:none;stroke:#90353B;stroke-width:8.64"/>
	<circle cx="935.18" cy="1661.40" r="26.35" style="fill:#90353B"/>
	<circle cx="935.18" cy="1661.40" r="22.03" style="fill:none;stroke:#90353B;stroke-width:8.64"/>
	<circle cx="982.33" cy="1490.99" r="26.35" style="fill:#90353B"/>
	<circle cx="982.33" cy="1490.99" r="22.03" style="fill:none;stroke:#90353B;stroke-width:8.64"/>
	<circle cx="1005.10" cy="1405.72" r="26.35" style="fill:#90353B"/>
	<circle cx="1005.10" cy="1405.72" r="22.03" style="fill:none;stroke:#90353B;stroke-width:8.64"/>
	<circle cx="1043.46" cy="1514.00" r="26.35" style="fill:#90353B"/>
	<circle cx="1043.46" cy="1514.00" r="22.03" style="fill:none;stroke:#90353B;stroke-width:8.64"/>
	<circle cx="1070.19" cy="1921.65" r="26.35" style="fill:#90353B"/>
	<circle cx="1070.19" cy="1921.65" r="22.03" style="fill:none;stroke:#90353B;stroke-width:8.64"/>
	<circle cx="1073.04" cy="995.97" r="26.35" style="fill:#90353B"/>
	<circle cx="1073.04" cy="995.97" r="22.03" style="fill:none;stroke:#90353B;stroke-width:8.64"/>
	<circle cx="1097.91" cy="1407.45" r="26.35" style="fill:#90353B"/>
	<circle cx="1097.91" cy="1407.45" r="22.03" style="fill:none;stroke:#90353B;stroke-width:8.64"/>
	<circle cx="1133.30" cy="1487.15" r="26.35" style="fill:#90353B"/>
	<circle cx="1133.30" cy="1487.15" r="22.03" style="fill:none;stroke:#90353B;stroke-width:8.64"/>
	<circle cx="1156.32" cy="1765.84" r="26.35" style="fill:#90353B"/>
	<circle cx="1156.32" cy="1765.84" r="22.03" style="fill:none;stroke:#90353B;stroke-width:8.64"/>
	<circle cx="1255.82" cy="484.37" r="26.35" style="fill:#90353B"/>
	<circle cx="1255.82" cy="484.37" r="22.03" style="fill:none;stroke:#90353B;stroke-width:8.64"/>
	<circle cx="1400.36" cy="1590.36" r="26.35" style="fill:#90353B"/>
	<circle cx="1400.36" cy="1590.36" r="22.03" style="fill:none;stroke:#90353B;stroke-width:8.64"/>
	<circle cx="1421.27" cy="974.81" r="26.35" style="fill:#90353B"/>
	<circle cx="1421.27" cy="974.81" r="22.03" style="fill:none;stroke:#90353B;stroke-width:8.64"/>
	<circle cx="1434.76" cy="690.55" r="26.35" style="fill:#90353B"/>
	<circle cx="1434.76" cy="690.55" r="22.03" style="fill:none;stroke:#90353B;stroke-width:8.64"/>
	<circle cx="1497.25" cy="564.57" r="26.35" style="fill:#90353B"/>
	<circle cx="1497.25" cy="564.57" r="22.03" style="fill:none;stroke:#90353B;stroke-width:8.64"/>
	<circle cx="1527.82" cy="605.28" r="26.35" style="fill:#90353B"/>
	<circle cx="1527.82" cy="605.28" r="22.03" style="fill:none;stroke:#90353B;stroke-width:8.64"/>
	<circle cx="1547.00" cy="785.59" r="26.35" style="fill:#90353B"/>
	<circle cx="1547.00" cy="785.59" r="22.03" style="fill:none;stroke:#90353B;stroke-width:8.64"/>
	<circle cx="1605.78" cy="760.34" r="26.35" style="fill:#90353B"/>
	<circle cx="1605.78" cy="760.34" r="22.03" style="fill:none;stroke:#90353B;stroke-width:8.64"/>
	<circle cx="1646.87" cy="678.29" r="26.35" style="fill:#90353B"/>
	<circle cx="1646.87" cy="678.29" r="22.03" style="fill:none;stroke:#90353B;stroke-width:8.64"/>
	<circle cx="1651.20" cy="1644.19" r="26.35" style="fill:#90353B"/>
	<circle cx="1651.20" cy="1644.19" r="22.03" style="fill:none;stroke:#90353B;stroke-width:8.64"/>
	<circle cx="1661.22" cy="1256.10" r="26.35" style="fill:#90353B"/>
	<circle cx="1661.22" cy="1256.10" r="22.03" style="fill:none;stroke:#90353B;stroke-width:8.64"/>
	<circle cx="1661.71" cy="1052.28" r="26.35" style="fill:#90353B"/>
	<circle cx="1661.71" cy="1052.28" r="22.03" style="fill:none;stroke:#90353B;stroke-width:8.64"/>
	<circle cx="1701.69" cy="643.77" r="26.35" style="fill:#90353B"/>
	<circle cx="1701.69" cy="643.77" r="22.03" style="fill:none;stroke:#90353B;stroke-width:8.64"/>
	<circle cx="1702.80" cy="596.99" r="26.35" style="fill:#90353B"/>
	<circle cx="1702.80" cy="596.99" r="22.03" style="fill:none;stroke:#90353B;stroke-width:8.64"/>
	<circle cx="1732.13" cy="1277.39" r="26.35" style="fill:#90353B"/>
	<circle cx="1732.13" cy="1277.39" r="22.03" style="fill:none;stroke:#90353B;stroke-width:8.64"/>
	<circle cx="1785.59" cy="745.74" r="26.35" style="fill:#90353B"/>
	<circle cx="1785.59" cy="745.74" r="22.03" style="fill:none;stroke:#90353B;stroke-width:8.64"/>
	<circle cx="1809.10" cy="1112.67" r="26.35" style="fill:#90353B"/>
	<circle cx="1809.10" cy="1112.67" r="22.03" style="fill:none;stroke:#90353B;stroke-width:8.64"/>
	<circle cx="1836.70" cy="797.10" r="26.35" style="fill:#90353B"/>
	<circle cx="1836.70" cy="797.10" r="22.03" style="fill:none;stroke:#90353B;stroke-width:8.64"/>
	<circle cx="1986.43" cy="831.63" r="26.35" style="fill:#90353B"/>
	<circle cx="1986.43" cy="831.63" r="22.03" style="fill:none;stroke:#90353B;stroke-width:8.64"/>
	<circle cx="1986.56" cy="1190.02" r="26.35" style="fill:#90353B"/>
	<circle cx="1986.56" cy="1190.02" r="22.03" style="fill:none;stroke:#90353B;stroke-width:8.64"/>
	<circle cx="2013.54" cy="730.15" r="26.35" style="fill:#90353B"/>
	<circle cx="2013.54" cy="730.15" r="22.03" style="fill:none;stroke:#90353B;stroke-width:8.64"/>
	<circle cx="2015.02" cy="985.20" r="26.35" style="fill:#90353B"/>
	<circle cx="2015.02" cy="985.20" r="22.03" style="fill:none;stroke:#90353B;stroke-width:8.64"/>
	<circle cx="2047.82" cy="743.76" r="26.35" style="fill:#90353B"/>
	<circle cx="2047.82" cy="743.76" r="22.03" style="fill:none;stroke:#90353B;stroke-width:8.64"/>
	<circle cx="2072.94" cy="164.22" r="26.35" style="fill:#90353B"/>
	<circle cx="2072.94" cy="164.22" r="22.03" style="fill:none;stroke:#90353B;stroke-width:8.64"/>
	<circle cx="2114.64" cy="251.22" r="26.35" style="fill:#90353B"/>
	<circle cx="2114.64" cy="251.22" r="22.03" style="fill:none;stroke:#90353B;stroke-width:8.64"/>
	<line x1="390.80" y1="2489.19" x2="390.80" y2="100.86" style="stroke:#000000;stroke-width:5.76"/>
	<line x1="390.80" y1="2425.82" x2="350.83" y2="2425.82" style="stroke:#000000;stroke-width:5.76"/>
	<text x="300.72" y="2425.82" style="font-family:'Helvetica';font-size:99.99px;fill:#000000" transform="rotate(-90 300.72,2425.82)" text-anchor="middle">-2</text>
	<line x1="390.80" y1="1886.13" x2="350.83" y2="1886.13" style="stroke:#000000;stroke-width:5.76"/>
	<text x="300.72" y="1886.13" style="font-family:'Helvetica';font-size:99.99px;fill:#000000" transform="rotate(-90 300.72,1886.13)" text-anchor="middle">0</text>
	<line x1="390.80" y1="1346.32" x2="350.83" y2="1346.32" style="stroke:#000000;stroke-width:5.76"/>
	<text x="300.72" y="1346.32" style="font-family:'Helvetica';font-size:99.99px;fill:#000000" transform="rotate(-90 300.72,1346.32)" text-anchor="middle">2</text>
	<line x1="390.80" y1="806.63" x2="350.83" y2="806.63" style="stroke:#000000;stroke-width:5.76"/>
	<text x="300.72" y="806.63" style="font-family:'Helvetica';font-size:99.99px;fill:#000000" transform="rotate(-90 300.72,806.63)" text-anchor="middle">4</text>
	<line x1="390.80" y1="266.94" x2="350.83" y2="266.94" style="stroke:#000000;stroke-width:5.76"/>
	<text x="300.72" y="266.94" style="font-family:'Helvetica';font-size:99.99px;fill:#000000" transform="rotate(-90 300.72,266.94)" text-anchor="middle">6</text>
	<text x="190.71" y="1294.96" style="font-family:'Helvetica';font-size:99.99px;fill:#000000" transform="rotate(-90 190.71,1294.96)" text-anchor="middle">y</text>
	<line x1="390.80" y1="2489.19" x2="3859.02" y2="2489.19" style="stroke:#000000;stroke-width:5.76"/>
	<line x1="454.16" y1="2489.19" x2="454.16" y2="2529.16" style="stroke:#000000;stroke-width:5.76"/>
	<text x="454.16" y="2619.14" style="font-family:'Helvetica';font-size:99.99px;fill:#000000" text-anchor="middle">0</text>
	<line x1="1122.41" y1="2489.19" x2="1122.41" y2="2529.16" style="stroke:#000000;stroke-width:5.76"/>
	<text x="1122.41" y="2619.14" style="font-family:'Helvetica';font-size:99.99px;fill:#000000" text-anchor="middle">2</text>
	<line x1="1790.79" y1="2489.19" x2="1790.79" y2="2529.16" style="stroke:#000000;stroke-width:5.76"/>
	<text x="1790.79" y="2619.14" style="font-family:'Helvetica';font-size:99.99px;fill:#000000" text-anchor="middle">4</text>
	<line x1="2459.04" y1="2489.19" x2="2459.04" y2="2529.16" style="stroke:#000000;stroke-width:5.76"/>
	<text x="2459.04" y="2619.14" style="font-family:'Helvetica';font-size:99.99px;fill:#000000" text-anchor="middle">6</text>
	<line x1="3127.41" y1="2489.19" x2="3127.41" y2="2529.16" style="stroke:#000000;stroke-width:5.76"/>
	<text x="3127.41" y="2619.14" style="font-family:'Helvetica';font-size:99.99px;fill:#000000" text-anchor="middle">8</text>
	<line x1="3795.66" y1="2489.19" x2="3795.66" y2="2529.16" style="stroke:#000000;stroke-width:5.76"/>
	<text x="3795.66" y="2619.14" style="font-family:'Helvetica';font-size:99.99px;fill:#000000" text-anchor="middle">10</text>
	<text x="2124.91" y="2729.16" style="font-family:'Helvetica';font-size:99.99px;fill:#000000" text-anchor="middle">x</text>
</svg>
