<?xml version="1.0" encoding="UTF-8" standalone="no"?>
<!-- This is a Stata 15.1 generated SVG file (http://www.stata.com) -->

<svg version="1.1" width="5.50in" height="4.00in" viewBox="0 0 3960 2880" xmlns="http://www.w3.org/2000/svg" xmlns:xlink="http://www.w3.org/1999/xlink">
	<desc>Stata Graph - Graph</desc>
	<rect x="0" y="0" width="3960" height="2880" style="fill:#EAF2F3;stroke:none"/>
	<rect x="0.00" y="0.00" width="3959.88" height="2880.00" style="fill:#EAF2F3"/>
	<rect x="2.88" y="2.88" width="3954.12" height="2874.24" style="fill:none;stroke:#EAF2F3;stroke-width:5.76"/>
	<rect x="290.81" y="100.86" width="3568.21" height="2388.33" style="fill:#FFFFFF"/>
	<rect x="293.69" y="103.74" width="3562.45" height="2382.57" style="fill:none;stroke:#FFFFFF;stroke-width:5.76"/>
	<line x1="290.81" y1="2325.46" x2="3859.02" y2="2325.46" style="stroke:#EAF2F3;stroke-width:8.64"/>
	<line x1="290.81" y1="1785.15" x2="3859.02" y2="1785.15" style="stroke:#EAF2F3;stroke-width:8.64"/>
	<line x1="290.81" y1="1244.84" x2="3859.02" y2="1244.84" style="stroke:#EAF2F3;stroke-width:8.64"/>
	<line x1="290.81" y1="704.53" x2="3859.02" y2="704.53" style="stroke:#EAF2F3;stroke-width:8.64"/>
	<line x1="290.81" y1="164.22" x2="3859.02" y2="164.22" style="stroke:#EAF2F3;stroke-width:8.64"/>
	<circle cx="3344.59" cy="1794.31" r="26.35" style="fill:#1A476F"/>
	<circle cx="3344.59" cy="1794.31" r="22.03" style="fill:none;stroke:#1A476F;stroke-width:8.64"/>
	<circle cx="2264.50" cy="428.44" r="26.35" style="fill:#1A476F"/>
	<circle cx="2264.50" cy="428.44" r="22.03" style="fill:none;stroke:#1A476F;stroke-width:8.64"/>
	<circle cx="3368.85" cy="1173.56" r="26.35" style="fill:#1A476F"/>
	<circle cx="3368.85" cy="1173.56" r="22.03" style="fill:none;stroke:#1A476F;stroke-width:8.64"/>
	<circle cx="3426.64" cy="1609.91" r="26.35" style="fill:#1A476F"/>
	<circle cx="3426.64" cy="1609.91" r="22.03" style="fill:none;stroke:#1A476F;stroke-width:8.64"/>
	<circle cx="2365.61" cy="578.80" r="26.35" style="fill:#1A476F"/>
	<circle cx="2365.61" cy="578.80" r="22.03" style="fill:none;stroke:#1A476F;stroke-width:8.64"/>
	<circle cx="3281.60" cy="1584.05" r="26.35" style="fill:#1A476F"/>
	<circle cx="3281.60" cy="1584.05" r="22.03" style="fill:none;stroke:#1A476F;stroke-width:8.64"/>
	<circle cx="2949.83" cy="1112.42" r="26.35" style="fill:#1A476F"/>
	<circle cx="2949.83" cy="1112.42" r="22.03" style="fill:none;stroke:#1A476F;stroke-width:8.64"/>
	<circle cx="2746.01" cy="1128.51" r="26.35" style="fill:#1A476F"/>
	<circle cx="2746.01" cy="1128.51" r="22.03" style="fill:none;stroke:#1A476F;stroke-width:8.64"/>
	<circle cx="2717.18" cy="1196.82" r="26.35" style="fill:#1A476F"/>
	<circle cx="2717.18" cy="1196.82" r="22.03" style="fill:none;stroke:#1A476F;stroke-width:8.64"/>
	<circle cx="3561.40" cy="1409.43" r="26.35" style="fill:#1A476F"/>
	<circle cx="3561.40" cy="1409.43" r="22.03" style="fill:none;stroke:#1A476F;stroke-width:8.64"/>
	<circle cx="3709.28" cy="1470.44" r="26.35" style="fill:#1A476F"/>
	<circle cx="3709.28" cy="1470.44" r="22.03" style="fill:none;stroke:#1A476F;stroke-width:8.64"/>
	<circle cx="2854.17" cy="1198.80" r="26.35" style="fill:#1A476F"/>
	<circle cx="2854.17" cy="1198.80" r="22.03" style="fill:none;stroke:#1A476F;stroke-width:8.64"/>
	<circle cx="2921.37" cy="1090.02" r="26.35" style="fill:#1A476F"/>
	<circle cx="2921.37" cy="1090.02" r="22.03" style="fill:none;stroke:#1A476F;stroke-width:8.64"/>
	<circle cx="2820.76" cy="1011.19" r="26.35" style="fill:#1A476F"/>
	<circle cx="2820.76" cy="1011.19" r="22.03" style="fill:none;stroke:#1A476F;stroke-width:8.64"/>
	<circle cx="3312.91" cy="1738.00" r="26.35" style="fill:#1A476F"/>
	<circle cx="3312.91" cy="1738.00" r="22.03" style="fill:none;stroke:#1A476F;stroke-width:8.64"/>
	<circle cx="3352.39" cy="1467.23" r="26.35" style="fill:#1A476F"/>
	<circle cx="3352.39" cy="1467.23" r="22.03" style="fill:none;stroke:#1A476F;stroke-width:8.64"/>
	<circle cx="2991.90" cy="1354.36" r="26.35" style="fill:#1A476F"/>
	<circle cx="2991.90" cy="1354.36" r="22.03" style="fill:none;stroke:#1A476F;stroke-width:8.64"/>
	<circle cx="2913.94" cy="1215.39" r="26.35" style="fill:#1A476F"/>
	<circle cx="2913.94" cy="1215.39" r="22.03" style="fill:none;stroke:#1A476F;stroke-width:8.64"/>
	<circle cx="3728.59" cy="2425.95" r="26.35" style="fill:#1A476F"/>
	<circle cx="3728.59" cy="2425.95" r="22.03" style="fill:none;stroke:#1A476F;stroke-width:8.64"/>
	<circle cx="2864.94" cy="1321.32" r="26.35" style="fill:#1A476F"/>
	<circle cx="2864.94" cy="1321.32" r="22.03" style="fill:none;stroke:#1A476F;stroke-width:8.64"/>
	<circle cx="3455.35" cy="1190.14" r="26.35" style="fill:#1A476F"/>
	<circle cx="3455.35" cy="1190.14" r="22.03" style="fill:none;stroke:#1A476F;stroke-width:8.64"/>
	<circle cx="3402.14" cy="1974.99" r="26.35" style="fill:#1A476F"/>
	<circle cx="3402.14" cy="1974.99" r="22.03" style="fill:none;stroke:#1A476F;stroke-width:8.64"/>
	<circle cx="3389.88" cy="1400.15" r="26.35" style="fill:#1A476F"/>
	<circle cx="3389.88" cy="1400.15" r="22.03" style="fill:none;stroke:#1A476F;stroke-width:8.64"/>
	<circle cx="2931.64" cy="1129.87" r="26.35" style="fill:#1A476F"/>
	<circle cx="2931.64" cy="1129.87" r="22.03" style="fill:none;stroke:#1A476F;stroke-width:8.64"/>
	<circle cx="3519.08" cy="1611.89" r="26.35" style="fill:#1A476F"/>
	<circle cx="3519.08" cy="1611.89" r="22.03" style="fill:none;stroke:#1A476F;stroke-width:8.64"/>
	<circle cx="2740.69" cy="825.93" r="26.35" style="fill:#1A476F"/>
	<circle cx="2740.69" cy="825.93" r="22.03" style="fill:none;stroke:#1A476F;stroke-width:8.64"/>
	<circle cx="3205.74" cy="1396.93" r="26.35" style="fill:#1A476F"/>
	<circle cx="3205.74" cy="1396.93" r="22.03" style="fill:none;stroke:#1A476F;stroke-width:8.64"/>
	<circle cx="3324.30" cy="1776.24" r="26.35" style="fill:#1A476F"/>
	<circle cx="3324.30" cy="1776.24" r="22.03" style="fill:none;stroke:#1A476F;stroke-width:8.64"/>
	<circle cx="3011.09" cy="1131.48" r="26.35" style="fill:#1A476F"/>
	<circle cx="3011.09" cy="1131.48" r="22.03" style="fill:none;stroke:#1A476F;stroke-width:8.64"/>
	<circle cx="2371.30" cy="936.82" r="26.35" style="fill:#1A476F"/>
	<circle cx="2371.30" cy="936.82" r="22.03" style="fill:none;stroke:#1A476F;stroke-width:8.64"/>
	<circle cx="3125.80" cy="1358.32" r="26.35" style="fill:#1A476F"/>
	<circle cx="3125.80" cy="1358.32" r="22.03" style="fill:none;stroke:#1A476F;stroke-width:8.64"/>
	<circle cx="2848.35" cy="1344.71" r="26.35" style="fill:#1A476F"/>
	<circle cx="2848.35" cy="1344.71" r="22.03" style="fill:none;stroke:#1A476F;stroke-width:8.64"/>
	<circle cx="2751.09" cy="1039.16" r="26.35" style="fill:#1A476F"/>
	<circle cx="2751.09" cy="1039.16" r="22.03" style="fill:none;stroke:#1A476F;stroke-width:8.64"/>
	<circle cx="3492.60" cy="1449.16" r="26.35" style="fill:#1A476F"/>
	<circle cx="3492.60" cy="1449.16" r="22.03" style="fill:none;stroke:#1A476F;stroke-width:8.64"/>
	<circle cx="2692.80" cy="835.21" r="26.35" style="fill:#1A476F"/>
	<circle cx="2692.80" cy="835.21" r="22.03" style="fill:none;stroke:#1A476F;stroke-width:8.64"/>
	<circle cx="2897.36" cy="1107.72" r="26.35" style="fill:#1A476F"/>
	<circle cx="2897.36" cy="1107.72" r="22.03" style="fill:none;stroke:#1A476F;stroke-width:8.64"/>
	<circle cx="2604.07" cy="287.60" r="26.35" style="fill:#1A476F"/>
	<circle cx="2604.07" cy="287.60" r="22.03" style="fill:none;stroke:#1A476F;stroke-width:8.64"/>
	<circle cx="3450.89" cy="1515.61" r="26.35" style="fill:#1A476F"/>
	<circle cx="3450.89" cy="1515.61" r="22.03" style="fill:none;stroke:#1A476F;stroke-width:8.64"/>
	<circle cx="2327.61" cy="723.59" r="26.35" style="fill:#1A476F"/>
	<circle cx="2327.61" cy="723.59" r="22.03" style="fill:none;stroke:#1A476F;stroke-width:8.64"/>
	<circle cx="2646.15" cy="1163.53" r="26.35" style="fill:#1A476F"/>
	<circle cx="2646.15" cy="1163.53" r="22.03" style="fill:none;stroke:#1A476F;stroke-width:8.64"/>
	<circle cx="3284.45" cy="1560.41" r="26.35" style="fill:#1A476F"/>
	<circle cx="3284.45" cy="1560.41" r="22.03" style="fill:none;stroke:#1A476F;stroke-width:8.64"/>
	<circle cx="3733.78" cy="1813.61" r="26.35" style="fill:#1A476F"/>
	<circle cx="3733.78" cy="1813.61" r="22.03" style="fill:none;stroke:#1A476F;stroke-width:8.64"/>
	<circle cx="3752.59" cy="1419.58" r="26.35" style="fill:#1A476F"/>
	<circle cx="3752.59" cy="1419.58" r="22.03" style="fill:none;stroke:#1A476F;stroke-width:8.64"/>
	<circle cx="3431.22" cy="1118.73" r="26.35" style="fill:#1A476F"/>
	<circle cx="3431.22" cy="1118.73" r="22.03" style="fill:none;stroke:#1A476F;stroke-width:8.64"/>
	<circle cx="3687.13" cy="2031.91" r="26.35" style="fill:#1A476F"/>
	<circle cx="3687.13" cy="2031.91" r="22.03" style="fill:none;stroke:#1A476F;stroke-width:8.64"/>
	<circle cx="2738.22" cy="707.62" r="26.35" style="fill:#1A476F"/>
	<circle cx="2738.22" cy="707.62" r="22.03" style="fill:none;stroke:#1A476F;stroke-width:8.64"/>
	<circle cx="2370.18" cy="616.05" r="26.35" style="fill:#1A476F"/>
	<circle cx="2370.18" cy="616.05" r="22.03" style="fill:none;stroke:#1A476F;stroke-width:8.64"/>
	<circle cx="1554.80" cy="1000.43" r="26.35" style="fill:#90353B"/>
	<circle cx="1554.80" cy="1000.43" r="22.03" style="fill:none;stroke:#90353B;stroke-width:8.64"/>
	<circle cx="1272.64" cy="1124.06" r="26.35" style="fill:#90353B"/>
	<circle cx="1272.64" cy="1124.06" r="22.03" style="fill:none;stroke:#90353B;stroke-width:8.64"/>
	<circle cx="824.30" cy="1637.51" r="26.35" style="fill:#90353B"/>
	<circle cx="824.30" cy="1637.51" r="22.03" style="fill:none;stroke:#90353B;stroke-width:8.64"/>
	<circle cx="452.31" cy="1769.43" r="26.35" style="fill:#90353B"/>
	<circle cx="452.31" cy="1769.43" r="22.03" style="fill:none;stroke:#90353B;stroke-width:8.64"/>
	<circle cx="1561.60" cy="1075.67" r="26.35" style="fill:#90353B"/>
	<circle cx="1561.60" cy="1075.67" r="22.03" style="fill:none;stroke:#90353B;stroke-width:8.64"/>
	<circle cx="598.83" cy="1318.97" r="26.35" style="fill:#90353B"/>
	<circle cx="598.83" cy="1318.97" r="22.03" style="fill:none;stroke:#90353B;stroke-width:8.64"/>
	<circle cx="1466.93" cy="556.64" r="26.35" style="fill:#90353B"/>
	<circle cx="1466.93" cy="556.64" r="22.03" style="fill:none;stroke:#90353B;stroke-width:8.64"/>
	<circle cx="1058.56" cy="1178.01" r="26.35" style="fill:#90353B"/>
	<circle cx="1058.56" cy="1178.01" r="22.03" style="fill:none;stroke:#90353B;stroke-width:8.64"/>
	<circle cx="1626.69" cy="925.18" r="26.35" style="fill:#90353B"/>
	<circle cx="1626.69" cy="925.18" r="22.03" style="fill:none;stroke:#90353B;stroke-width:8.64"/>
	<circle cx="1701.07" cy="1093.74" r="26.35" style="fill:#90353B"/>
	<circle cx="1701.07" cy="1093.74" r="22.03" style="fill:none;stroke:#90353B;stroke-width:8.64"/>
	<circle cx="765.89" cy="1638.25" r="26.35" style="fill:#90353B"/>
	<circle cx="765.89" cy="1638.25" r="22.03" style="fill:none;stroke:#90353B;stroke-width:8.64"/>
	<circle cx="1919.61" cy="560.85" r="26.35" style="fill:#90353B"/>
	<circle cx="1919.61" cy="560.85" r="22.03" style="fill:none;stroke:#90353B;stroke-width:8.64"/>
	<circle cx="586.08" cy="1118.73" r="26.35" style="fill:#90353B"/>
	<circle cx="586.08" cy="1118.73" r="22.03" style="fill:none;stroke:#90353B;stroke-width:8.64"/>
	<circle cx="1517.30" cy="1045.35" r="26.35" style="fill:#90353B"/>
	<circle cx="1517.30" cy="1045.35" r="22.03" style="fill:none;stroke:#90353B;stroke-width:8.64"/>
	<circle cx="510.35" cy="1831.93" r="26.35" style="fill:#90353B"/>
	<circle cx="510.35" cy="1831.93" r="22.03" style="fill:none;stroke:#90353B;stroke-width:8.64"/>
	<circle cx="2061.55" cy="799.20" r="26.35" style="fill:#90353B"/>
	<circle cx="2061.55" cy="799.20" r="22.03" style="fill:none;stroke:#90353B;stroke-width:8.64"/>
	<circle cx="815.51" cy="1607.32" r="26.35" style="fill:#90353B"/>
	<circle cx="815.51" cy="1607.32" r="22.03" style="fill:none;stroke:#90353B;stroke-width:8.64"/>
	<circle cx="2035.07" cy="186.62" r="26.35" style="fill:#90353B"/>
	<circle cx="2035.07" cy="186.62" r="22.03" style="fill:none;stroke:#90353B;stroke-width:8.64"/>
	<circle cx="1218.81" cy="1155.49" r="26.35" style="fill:#90353B"/>
	<circle cx="1218.81" cy="1155.49" r="22.03" style="fill:none;stroke:#90353B;stroke-width:8.64"/>
	<circle cx="926.64" cy="1122.20" r="26.35" style="fill:#90353B"/>
	<circle cx="926.64" cy="1122.20" r="22.03" style="fill:none;stroke:#90353B;stroke-width:8.64"/>
	<circle cx="1263.86" cy="760.84" r="26.35" style="fill:#90353B"/>
	<circle cx="1263.86" cy="760.84" r="22.03" style="fill:none;stroke:#90353B;stroke-width:8.64"/>
	<circle cx="1095.43" cy="1272.31" r="26.35" style="fill:#90353B"/>
	<circle cx="1095.43" cy="1272.31" r="22.03" style="fill:none;stroke:#90353B;stroke-width:8.64"/>
	<circle cx="506.26" cy="1842.57" r="26.35" style="fill:#90353B"/>
	<circle cx="506.26" cy="1842.57" r="22.03" style="fill:none;stroke:#90353B;stroke-width:8.64"/>
	<circle cx="1567.54" cy="847.34" r="26.35" style="fill:#90353B"/>
	<circle cx="1567.54" cy="847.34" r="22.03" style="fill:none;stroke:#90353B;stroke-width:8.64"/>
	<circle cx="1464.95" cy="1262.17" r="26.35" style="fill:#90353B"/>
	<circle cx="1464.95" cy="1262.17" r="22.03" style="fill:none;stroke:#90353B;stroke-width:8.64"/>
	<circle cx="949.29" cy="857.24" r="26.35" style="fill:#90353B"/>
	<circle cx="949.29" cy="857.24" r="22.03" style="fill:none;stroke:#90353B;stroke-width:8.64"/>
	<circle cx="1407.16" cy="588.94" r="26.35" style="fill:#90353B"/>
	<circle cx="1407.16" cy="588.94" r="22.03" style="fill:none;stroke:#90353B;stroke-width:8.64"/>
	<circle cx="1108.18" cy="1336.29" r="26.35" style="fill:#90353B"/>
	<circle cx="1108.18" cy="1336.29" r="22.03" style="fill:none;stroke:#90353B;stroke-width:8.64"/>
	<circle cx="1575.59" cy="1005.38" r="26.35" style="fill:#90353B"/>
	<circle cx="1575.59" cy="1005.38" r="22.03" style="fill:none;stroke:#90353B;stroke-width:8.64"/>
	<circle cx="999.03" cy="1484.43" r="26.35" style="fill:#90353B"/>
	<circle cx="999.03" cy="1484.43" r="22.03" style="fill:none;stroke:#90353B;stroke-width:8.64"/>
	<circle cx="1436.86" cy="1075.17" r="26.35" style="fill:#90353B"/>
	<circle cx="1436.86" cy="1075.17" r="22.03" style="fill:none;stroke:#90353B;stroke-width:8.64"/>
	<circle cx="827.52" cy="1319.71" r="26.35" style="fill:#90353B"/>
	<circle cx="827.52" cy="1319.71" r="22.03" style="fill:none;stroke:#90353B;stroke-width:8.64"/>
	<circle cx="1283.78" cy="1233.08" r="26.35" style="fill:#90353B"/>
	<circle cx="1283.78" cy="1233.08" r="22.03" style="fill:none;stroke:#90353B;stroke-width:8.64"/>
	<circle cx="737.67" cy="2094.78" r="26.35" style="fill:#90353B"/>
	<circle cx="737.67" cy="2094.78" r="22.03" style="fill:none;stroke:#90353B;stroke-width:8.64"/>
	<circle cx="1780.64" cy="677.68" r="26.35" style="fill:#90353B"/>
	<circle cx="1780.64" cy="677.68" r="22.03" style="fill:none;stroke:#90353B;stroke-width:8.64"/>
	<circle cx="364.57" cy="1658.43" r="26.35" style="fill:#90353B"/>
	<circle cx="364.57" cy="1658.43" r="22.03" style="fill:none;stroke:#90353B;stroke-width:8.64"/>
	<circle cx="1545.88" cy="1038.17" r="26.35" style="fill:#90353B"/>
	<circle cx="1545.88" cy="1038.17" r="22.03" style="fill:none;stroke:#90353B;stroke-width:8.64"/>
	<circle cx="622.59" cy="1118.86" r="26.35" style="fill:#90353B"/>
	<circle cx="622.59" cy="1118.86" r="22.03" style="fill:none;stroke:#90353B;stroke-width:8.64"/>
	<circle cx="793.11" cy="1429.85" r="26.35" style="fill:#90353B"/>
	<circle cx="793.11" cy="1429.85" r="22.03" style="fill:none;stroke:#90353B;stroke-width:8.64"/>
	<circle cx="1144.56" cy="984.21" r="26.35" style="fill:#90353B"/>
	<circle cx="1144.56" cy="984.21" r="22.03" style="fill:none;stroke:#90353B;stroke-width:8.64"/>
	<circle cx="1488.22" cy="1209.08" r="26.35" style="fill:#90353B"/>
	<circle cx="1488.22" cy="1209.08" r="22.03" style="fill:none;stroke:#90353B;stroke-width:8.64"/>
	<circle cx="1780.27" cy="1093.86" r="26.35" style="fill:#90353B"/>
	<circle cx="1780.27" cy="1093.86" r="22.03" style="fill:none;stroke:#90353B;stroke-width:8.64"/>
	<circle cx="478.29" cy="1713.62" r="26.35" style="fill:#90353B"/>
	<circle cx="478.29" cy="1713.62" r="22.03" style="fill:none;stroke:#90353B;stroke-width:8.64"/>
	<circle cx="644.49" cy="1183.21" r="26.35" style="fill:#90353B"/>
	<circle cx="644.49" cy="1183.21" r="22.03" style="fill:none;stroke:#90353B;stroke-width:8.64"/>
	<circle cx="388.08" cy="1718.82" r="26.35" style="fill:#90353B"/>
	<circle cx="388.08" cy="1718.82" r="22.03" style="fill:none;stroke:#90353B;stroke-width:8.64"/>
	<circle cx="1455.55" cy="1308.33" r="26.35" style="fill:#90353B"/>
	<circle cx="1455.55" cy="1308.33" r="22.03" style="fill:none;stroke:#90353B;stroke-width:8.64"/>
	<circle cx="371.99" cy="1319.09" r="26.35" style="fill:#90353B"/>
	<circle cx="371.99" cy="1319.09" r="22.03" style="fill:none;stroke:#90353B;stroke-width:8.64"/>
	<circle cx="1137.14" cy="867.14" r="26.35" style="fill:#90353B"/>
	<circle cx="1137.14" cy="867.14" r="22.03" style="fill:none;stroke:#90353B;stroke-width:8.64"/>
	<circle cx="465.92" cy="1734.53" r="26.35" style="fill:#90353B"/>
	<circle cx="465.92" cy="1734.53" r="22.03" style="fill:none;stroke:#90353B;stroke-width:8.64"/>
	<circle cx="1177.36" cy="1081.24" r="26.35" style="fill:#90353B"/>
	<circle cx="1177.36" cy="1081.24" r="22.03" style="fill:none;stroke:#90353B;stroke-width:8.64"/>
	<circle cx="2035.07" cy="600.45" r="26.35" style="fill:#90353B"/>
	<circle cx="2035.07" cy="600.45" r="22.03" style="fill:none;stroke:#90353B;stroke-width:8.64"/>
	<circle cx="1860.21" cy="420.76" r="26.35" style="fill:#90353B"/>
	<circle cx="1860.21" cy="420.76" r="22.03" style="fill:none;stroke:#90353B;stroke-width:8.64"/>
	<circle cx="1657.38" cy="593.03" r="26.35" style="fill:#90353B"/>
	<circle cx="1657.38" cy="593.03" r="22.03" style="fill:none;stroke:#90353B;stroke-width:8.64"/>
	<line x1="364.57" y1="1155.24" x2="2058.58" y2="1212.29" stroke-linecap="round" style="stroke:#55752F;stroke-width:8.64"/>
	<line x1="2058.58" y1="1212.29" x2="3752.59" y2="1269.22" stroke-linecap="round" style="stroke:#55752F;stroke-width:8.64"/>
	<line x1="290.81" y1="2489.19" x2="290.81" y2="100.86" style="stroke:#000000;stroke-width:5.76"/>
	<line x1="290.81" y1="2325.46" x2="250.84" y2="2325.46" style="stroke:#000000;stroke-width:5.76"/>
	<text x="200.73" y="2325.46" style="font-family:'Helvetica';font-size:99.99px;fill:#000000" transform="rotate(-90 200.73,2325.46)" text-anchor="middle">-2</text>
	<line x1="290.81" y1="1785.15" x2="250.84" y2="1785.15" style="stroke:#000000;stroke-width:5.76"/>
	<text x="200.73" y="1785.15" style="font-family:'Helvetica';font-size:99.99px;fill:#000000" transform="rotate(-90 200.73,1785.15)" text-anchor="middle">0</text>
	<line x1="290.81" y1="1244.84" x2="250.84" y2="1244.84" style="stroke:#000000;stroke-width:5.76"/>
	<text x="200.73" y="1244.84" style="font-family:'Helvetica';font-size:99.99px;fill:#000000" transform="rotate(-90 200.73,1244.84)" text-anchor="middle">2</text>
	<line x1="290.81" y1="704.53" x2="250.84" y2="704.53" style="stroke:#000000;stroke-width:5.76"/>
	<text x="200.73" y="704.53" style="font-family:'Helvetica';font-size:99.99px;fill:#000000" transform="rotate(-90 200.73,704.53)" text-anchor="middle">4</text>
	<line x1="290.81" y1="164.22" x2="250.84" y2="164.22" style="stroke:#000000;stroke-width:5.76"/>
	<text x="200.73" y="164.22" style="font-family:'Helvetica';font-size:99.99px;fill:#000000" transform="rotate(-90 200.73,164.22)" text-anchor="middle">6</text>
	<line x1="290.81" y1="2489.19" x2="3859.02" y2="2489.19" style="stroke:#000000;stroke-width:5.76"/>
	<line x1="354.17" y1="2489.19" x2="354.17" y2="2529.16" style="stroke:#000000;stroke-width:5.76"/>
	<text x="354.17" y="2619.14" style="font-family:'Helvetica';font-size:99.99px;fill:#000000" text-anchor="middle">0</text>
	<line x1="1042.47" y1="2489.19" x2="1042.47" y2="2529.16" style="stroke:#000000;stroke-width:5.76"/>
	<text x="1042.47" y="2619.14" style="font-family:'Helvetica';font-size:99.99px;fill:#000000" text-anchor="middle">2</text>
	<line x1="1730.77" y1="2489.19" x2="1730.77" y2="2529.16" style="stroke:#000000;stroke-width:5.76"/>
	<text x="1730.77" y="2619.14" style="font-family:'Helvetica';font-size:99.99px;fill:#000000" text-anchor="middle">4</text>
	<line x1="2419.07" y1="2489.19" x2="2419.07" y2="2529.16" style="stroke:#000000;stroke-width:5.76"/>
	<text x="2419.07" y="2619.14" style="font-family:'Helvetica';font-size:99.99px;fill:#000000" text-anchor="middle">6</text>
	<line x1="3107.36" y1="2489.19" x2="3107.36" y2="2529.16" style="stroke:#000000;stroke-width:5.76"/>
	<text x="3107.36" y="2619.14" style="font-family:'Helvetica';font-size:99.99px;fill:#000000" text-anchor="middle">8</text>
	<line x1="3795.66" y1="2489.19" x2="3795.66" y2="2529.16" style="stroke:#000000;stroke-width:5.76"/>
	<text x="3795.66" y="2619.14" style="font-family:'Helvetica';font-size:99.99px;fill:#000000" text-anchor="middle">10</text>
	<text x="2074.92" y="2729.16" style="font-family:'Helvetica';font-size:99.99px;fill:#000000" text-anchor="middle">x</text>
</svg>
